<?xml version="1.0" encoding="UTF-8"?>
<svg xmlns="http://www.w3.org/2000/svg"
     xmlns:xlink="http://www.w3.org/1999/xlink"
     version="1.2"
     width="350mm" height="100mm" viewBox="0 0 350 100"
     stroke="none"
     fill="#000000"
     stroke-width="0.3"
     font-size="3.88"
>
<defs>
  <marker id="arrow" markerWidth="15" markerHeight="7" refX="5" refY="3.5" orient="auto" markerUnits="strokeWidth">
    <path d="M0,0 L15,3.5 L0,7 z" stroke="context-stroke" fill="context-stroke"/>
  </marker>
</defs>
<g stroke="#808080" stroke-width="1" id="img-3fbdf1ba-1">
  <g transform="translate(270,50)">
    <path d="M-50,-50 L50,-50 50,50 -50,50  z" class="primitive"/>
  </g>
</g>
<g stroke-width="0.5" id="img-3fbdf1ba-2">
  <g stroke="#808080" fill="#008015" id="img-3fbdf1ba-3">
    <g transform="translate(312.86,10)">
      <path d="M-7.14,-10 L7.14,-10 7.14,10 -7.14,10  z" class="primitive"/>
    </g>
    <g stroke="#000000" id="img-3fbdf1ba-4">
      <g transform="translate(312.86,10)">
        <g class="primitive">
          <text text-anchor="middle" dy="0.35em">←</text>
        </g>
      </g>
    </g>
  </g>
  <g stroke="#808080" fill="#FFFFFF" id="img-3fbdf1ba-5">
    <g transform="translate(312.86,30)">
      <path d="M-7.14,-10 L7.14,-10 7.14,10 -7.14,10  z" class="primitive"/>
    </g>
    <g stroke="#000000" id="img-3fbdf1ba-6">
      <g transform="translate(312.86,30)">
        <g class="primitive">
          <text text-anchor="middle" dy="0.35em">↑</text>
        </g>
      </g>
    </g>
  </g>
  <g stroke="#808080" fill="#FFFFFF" id="img-3fbdf1ba-7">
    <g transform="translate(312.86,50)">
      <path d="M-7.14,-10 L7.14,-10 7.14,10 -7.14,10  z" class="primitive"/>
    </g>
    <g stroke="#000000" id="img-3fbdf1ba-8">
      <g transform="translate(312.86,50)">
        <g class="primitive">
          <text text-anchor="middle" dy="0.35em">↑</text>
        </g>
      </g>
    </g>
  </g>
  <g stroke="#808080" fill="#FFFFFF" id="img-3fbdf1ba-9">
    <g transform="translate(312.86,70)">
      <path d="M-7.14,-10 L7.14,-10 7.14,10 -7.14,10  z" class="primitive"/>
    </g>
    <g stroke="#000000" id="img-3fbdf1ba-10">
      <g transform="translate(312.86,70)">
        <g class="primitive">
          <text text-anchor="middle" dy="0.35em">↑</text>
        </g>
      </g>
    </g>
  </g>
  <g stroke="#808080" fill="#FFFFFF" id="img-3fbdf1ba-11">
    <g transform="translate(312.86,90)">
      <path d="M-7.14,-10 L7.14,-10 7.14,10 -7.14,10  z" class="primitive"/>
    </g>
    <g stroke="#000000" id="img-3fbdf1ba-12">
      <g transform="translate(312.86,90)">
        <g class="primitive">
          <text text-anchor="middle" dy="0.35em">↑</text>
        </g>
      </g>
    </g>
  </g>
  <g stroke="#808080" fill="#FFFFFF" id="img-3fbdf1ba-13">
    <g transform="translate(298.57,10)">
      <path d="M-7.14,-10 L7.14,-10 7.14,10 -7.14,10  z" class="primitive"/>
    </g>
    <g stroke="#000000" id="img-3fbdf1ba-14">
      <g transform="translate(298.57,10)">
        <g class="primitive">
          <text text-anchor="middle" dy="0.35em">→</text>
        </g>
      </g>
    </g>
  </g>
  <g stroke="#808080" fill="#FFFFFF" id="img-3fbdf1ba-15">
    <g transform="translate(298.57,30)">
      <path d="M-7.14,-10 L7.14,-10 7.14,10 -7.14,10  z" class="primitive"/>
    </g>
    <g stroke="#000000" id="img-3fbdf1ba-16">
      <g transform="translate(298.57,30)">
        <g class="primitive">
          <text text-anchor="middle" dy="0.35em">↑</text>
        </g>
      </g>
    </g>
  </g>
  <g stroke="#808080" fill="#FFFFFF" id="img-3fbdf1ba-17">
    <g transform="translate(298.57,50)">
      <path d="M-7.14,-10 L7.14,-10 7.14,10 -7.14,10  z" class="primitive"/>
    </g>
    <g stroke="#000000" id="img-3fbdf1ba-18">
      <g transform="translate(298.57,50)">
        <g class="primitive">
          <text text-anchor="middle" dy="0.35em">→</text>
        </g>
      </g>
    </g>
  </g>
  <g stroke="#808080" fill="#FFFFFF" id="img-3fbdf1ba-19">
    <g transform="translate(298.57,70)">
      <path d="M-7.14,-10 L7.14,-10 7.14,10 -7.14,10  z" class="primitive"/>
    </g>
    <g stroke="#000000" id="img-3fbdf1ba-20">
      <g transform="translate(298.57,70)">
        <g class="primitive">
          <text text-anchor="middle" dy="0.35em">→</text>
        </g>
      </g>
    </g>
  </g>
  <g stroke="#808080" fill="#FFFFFF" id="img-3fbdf1ba-21">
    <g transform="translate(298.57,90)">
      <path d="M-7.14,-10 L7.14,-10 7.14,10 -7.14,10  z" class="primitive"/>
    </g>
    <g stroke="#000000" id="img-3fbdf1ba-22">
      <g transform="translate(298.57,90)">
        <g class="primitive">
          <text text-anchor="middle" dy="0.35em">↑</text>
        </g>
      </g>
    </g>
  </g>
  <g stroke="#808080" fill="#FF0000" id="img-3fbdf1ba-23">
    <g transform="translate(284.29,10)">
      <path d="M-7.14,-10 L7.14,-10 7.14,10 -7.14,10  z" class="primitive"/>
    </g>
    <g stroke="#000000" id="img-3fbdf1ba-24">
      <g transform="translate(284.29,10)">
        <g class="primitive">
          <text text-anchor="middle" dy="0.35em">↑</text>
        </g>
      </g>
    </g>
  </g>
  <g stroke="#808080" fill="#FFFFFF" id="img-3fbdf1ba-25">
    <g transform="translate(284.29,30)">
      <path d="M-7.14,-10 L7.14,-10 7.14,10 -7.14,10  z" class="primitive"/>
    </g>
    <g stroke="#000000" id="img-3fbdf1ba-26">
      <g transform="translate(284.29,30)">
        <g class="primitive">
          <text text-anchor="middle" dy="0.35em">→</text>
        </g>
      </g>
    </g>
  </g>
  <g stroke="#808080" fill="#FFFFFF" id="img-3fbdf1ba-27">
    <g transform="translate(284.29,50)">
      <path d="M-7.14,-10 L7.14,-10 7.14,10 -7.14,10  z" class="primitive"/>
    </g>
    <g stroke="#000000" id="img-3fbdf1ba-28">
      <g transform="translate(284.29,50)">
        <g class="primitive">
          <text text-anchor="middle" dy="0.35em">→</text>
        </g>
      </g>
    </g>
  </g>
  <g stroke="#808080" fill="#FFFFFF" id="img-3fbdf1ba-29">
    <g transform="translate(284.29,70)">
      <path d="M-7.14,-10 L7.14,-10 7.14,10 -7.14,10  z" class="primitive"/>
    </g>
    <g stroke="#000000" id="img-3fbdf1ba-30">
      <g transform="translate(284.29,70)">
        <g class="primitive">
          <text text-anchor="middle" dy="0.35em">↑</text>
        </g>
      </g>
    </g>
  </g>
  <g stroke="#808080" fill="#FF0000" id="img-3fbdf1ba-31">
    <g transform="translate(284.29,90)">
      <path d="M-7.14,-10 L7.14,-10 7.14,10 -7.14,10  z" class="primitive"/>
    </g>
    <g stroke="#000000" id="img-3fbdf1ba-32">
      <g transform="translate(284.29,90)">
        <g class="primitive">
          <text text-anchor="middle" dy="0.35em">↓</text>
        </g>
      </g>
    </g>
  </g>
  <g stroke="#808080" fill="#FF0000" id="img-3fbdf1ba-33">
    <g transform="translate(270,10)">
      <path d="M-7.14,-10 L7.14,-10 7.14,10 -7.14,10  z" class="primitive"/>
    </g>
    <g stroke="#000000" id="img-3fbdf1ba-34">
      <g transform="translate(270,10)">
        <g class="primitive">
          <text text-anchor="middle" dy="0.35em">↑</text>
        </g>
      </g>
    </g>
  </g>
  <g stroke="#808080" fill="#FFFFFF" id="img-3fbdf1ba-35">
    <g transform="translate(270,30)">
      <path d="M-7.14,-10 L7.14,-10 7.14,10 -7.14,10  z" class="primitive"/>
    </g>
    <g stroke="#000000" id="img-3fbdf1ba-36">
      <g transform="translate(270,30)">
        <g class="primitive">
          <text text-anchor="middle" dy="0.35em">→</text>
        </g>
      </g>
    </g>
  </g>
  <g stroke="#808080" fill="#FFFFFF" id="img-3fbdf1ba-37">
    <g transform="translate(270,50)">
      <path d="M-7.14,-10 L7.14,-10 7.14,10 -7.14,10  z" class="primitive"/>
    </g>
    <g stroke="#000000" id="img-3fbdf1ba-38">
      <g transform="translate(270,50)">
        <g class="primitive">
          <text text-anchor="middle" dy="0.35em">→</text>
        </g>
      </g>
    </g>
  </g>
  <g stroke="#808080" fill="#FFFFFF" id="img-3fbdf1ba-39">
    <g transform="translate(270,70)">
      <path d="M-7.14,-10 L7.14,-10 7.14,10 -7.14,10  z" class="primitive"/>
    </g>
    <g stroke="#000000" id="img-3fbdf1ba-40">
      <g transform="translate(270,70)">
        <g class="primitive">
          <text text-anchor="middle" dy="0.35em">↑</text>
        </g>
      </g>
    </g>
  </g>
  <g stroke="#808080" fill="#FF0000" id="img-3fbdf1ba-41">
    <g transform="translate(270,90)">
      <path d="M-7.14,-10 L7.14,-10 7.14,10 -7.14,10  z" class="primitive"/>
    </g>
    <g stroke="#000000" id="img-3fbdf1ba-42">
      <g transform="translate(270,90)">
        <g class="primitive">
          <text text-anchor="middle" dy="0.35em">→</text>
        </g>
      </g>
    </g>
  </g>
  <g stroke="#808080" fill="#FF0000" id="img-3fbdf1ba-43">
    <g transform="translate(255.71,10)">
      <path d="M-7.14,-10 L7.14,-10 7.14,10 -7.14,10  z" class="primitive"/>
    </g>
    <g stroke="#000000" id="img-3fbdf1ba-44">
      <g transform="translate(255.71,10)">
        <g class="primitive">
          <text text-anchor="middle" dy="0.35em">↑</text>
        </g>
      </g>
    </g>
  </g>
  <g stroke="#808080" fill="#FFFFFF" id="img-3fbdf1ba-45">
    <g transform="translate(255.71,30)">
      <path d="M-7.14,-10 L7.14,-10 7.14,10 -7.14,10  z" class="primitive"/>
    </g>
    <g stroke="#000000" id="img-3fbdf1ba-46">
      <g transform="translate(255.71,30)">
        <g class="primitive">
          <text text-anchor="middle" dy="0.35em">→</text>
        </g>
      </g>
    </g>
  </g>
  <g stroke="#808080" fill="#FFFFFF" id="img-3fbdf1ba-47">
    <g transform="translate(255.71,50)">
      <path d="M-7.14,-10 L7.14,-10 7.14,10 -7.14,10  z" class="primitive"/>
    </g>
    <g stroke="#000000" id="img-3fbdf1ba-48">
      <g transform="translate(255.71,50)">
        <g class="primitive">
          <text text-anchor="middle" dy="0.35em">→</text>
        </g>
      </g>
    </g>
  </g>
  <g stroke="#808080" fill="#FFFFFF" id="img-3fbdf1ba-49">
    <g transform="translate(255.71,70)">
      <path d="M-7.14,-10 L7.14,-10 7.14,10 -7.14,10  z" class="primitive"/>
    </g>
    <g stroke="#000000" id="img-3fbdf1ba-50">
      <g transform="translate(255.71,70)">
        <g class="primitive">
          <text text-anchor="middle" dy="0.35em">→</text>
        </g>
      </g>
    </g>
  </g>
  <g stroke="#808080" fill="#FF0000" id="img-3fbdf1ba-51">
    <g transform="translate(255.71,90)">
      <path d="M-7.14,-10 L7.14,-10 7.14,10 -7.14,10  z" class="primitive"/>
    </g>
    <g stroke="#000000" id="img-3fbdf1ba-52">
      <g transform="translate(255.71,90)">
        <g class="primitive">
          <text text-anchor="middle" dy="0.35em">↑</text>
        </g>
      </g>
    </g>
  </g>
  <g stroke="#808080" fill="#FFFFFF" id="img-3fbdf1ba-53">
    <g transform="translate(241.43,10)">
      <path d="M-7.14,-10 L7.14,-10 7.14,10 -7.14,10  z" class="primitive"/>
    </g>
    <g stroke="#000000" id="img-3fbdf1ba-54">
      <g transform="translate(241.43,10)">
        <g class="primitive">
          <text text-anchor="middle" dy="0.35em">↓</text>
        </g>
      </g>
    </g>
  </g>
  <g stroke="#808080" fill="#FFFFFF" id="img-3fbdf1ba-55">
    <g transform="translate(241.43,30)">
      <path d="M-7.14,-10 L7.14,-10 7.14,10 -7.14,10  z" class="primitive"/>
    </g>
    <g stroke="#000000" id="img-3fbdf1ba-56">
      <g transform="translate(241.43,30)">
        <g class="primitive">
          <text text-anchor="middle" dy="0.35em">→</text>
        </g>
      </g>
    </g>
  </g>
  <g stroke="#808080" fill="#FFFFFF" id="img-3fbdf1ba-57">
    <g transform="translate(241.43,50)">
      <path d="M-7.14,-10 L7.14,-10 7.14,10 -7.14,10  z" class="primitive"/>
    </g>
    <g stroke="#000000" id="img-3fbdf1ba-58">
      <g transform="translate(241.43,50)">
        <g class="primitive">
          <text text-anchor="middle" dy="0.35em">→</text>
        </g>
      </g>
    </g>
  </g>
  <g stroke="#808080" fill="#FFFFFF" id="img-3fbdf1ba-59">
    <g transform="translate(241.43,70)">
      <path d="M-7.14,-10 L7.14,-10 7.14,10 -7.14,10  z" class="primitive"/>
    </g>
    <g stroke="#000000" id="img-3fbdf1ba-60">
      <g transform="translate(241.43,70)">
        <g class="primitive">
          <text text-anchor="middle" dy="0.35em">→</text>
        </g>
      </g>
    </g>
  </g>
  <g stroke="#808080" fill="#FFFFFF" id="img-3fbdf1ba-61">
    <g transform="translate(241.43,90)">
      <path d="M-7.14,-10 L7.14,-10 7.14,10 -7.14,10  z" class="primitive"/>
    </g>
    <g stroke="#000000" id="img-3fbdf1ba-62">
      <g transform="translate(241.43,90)">
        <g class="primitive">
          <text text-anchor="middle" dy="0.35em">↑</text>
        </g>
      </g>
    </g>
  </g>
  <g stroke="#808080" fill="#FFFFFF" id="img-3fbdf1ba-63">
    <g transform="translate(227.14,10)">
      <path d="M-7.14,-10 L7.14,-10 7.14,10 -7.14,10  z" class="primitive"/>
    </g>
    <g stroke="#000000" id="img-3fbdf1ba-64">
      <g transform="translate(227.14,10)">
        <g class="primitive">
          <text text-anchor="middle" dy="0.35em">↓</text>
        </g>
      </g>
    </g>
  </g>
  <g stroke="#808080" fill="#FFFFFF" id="img-3fbdf1ba-65">
    <g transform="translate(227.14,30)">
      <path d="M-7.14,-10 L7.14,-10 7.14,10 -7.14,10  z" class="primitive"/>
    </g>
    <g stroke="#000000" id="img-3fbdf1ba-66">
      <g transform="translate(227.14,30)">
        <g class="primitive">
          <text text-anchor="middle" dy="0.35em">→</text>
        </g>
      </g>
    </g>
  </g>
  <g stroke="#808080" fill="#FFFFFF" id="img-3fbdf1ba-67">
    <g transform="translate(227.14,50)">
      <path d="M-7.14,-10 L7.14,-10 7.14,10 -7.14,10  z" class="primitive"/>
    </g>
    <g stroke="#000000" id="img-3fbdf1ba-68">
      <g transform="translate(227.14,50)">
        <g class="primitive">
          <text text-anchor="middle" dy="0.35em">→</text>
        </g>
      </g>
    </g>
  </g>
  <g stroke="#808080" fill="#FFFFFF" id="img-3fbdf1ba-69">
    <g transform="translate(227.14,70)">
      <path d="M-7.14,-10 L7.14,-10 7.14,10 -7.14,10  z" class="primitive"/>
    </g>
    <g stroke="#000000" id="img-3fbdf1ba-70">
      <g transform="translate(227.14,70)">
        <g class="primitive">
          <text text-anchor="middle" dy="0.35em">→</text>
        </g>
      </g>
    </g>
  </g>
  <g stroke="#808080" fill="#FFFFFF" id="img-3fbdf1ba-71">
    <g transform="translate(227.14,90)">
      <path d="M-7.14,-10 L7.14,-10 7.14,10 -7.14,10  z" class="primitive"/>
    </g>
    <g stroke="#000000" id="img-3fbdf1ba-72">
      <g transform="translate(227.14,90)">
        <g class="primitive">
          <text text-anchor="middle" dy="0.35em">↑</text>
        </g>
      </g>
    </g>
  </g>
</g>
<g fill="#FFA500" id="img-3fbdf1ba-73">
  <g transform="translate(312.86,10)">
    <circle cx="0" cy="0" r="5.71" class="primitive"/>
  </g>
</g>
<g transform="translate(215,50)">
  <path d="M-5,-0 L5,-0 5,0 -5,0  z" class="primitive"/>
</g>
<g stroke="#808080" stroke-width="1" id="img-3fbdf1ba-74">
  <g transform="translate(160,50)">
    <path d="M-50,-50 L50,-50 50,50 -50,50  z" class="primitive"/>
  </g>
</g>
<g stroke-width="0.5" id="img-3fbdf1ba-75">
  <g stroke="#808080" fill="#008015" id="img-3fbdf1ba-76">
    <g transform="translate(202.86,10)">
      <path d="M-7.14,-10 L7.14,-10 7.14,10 -7.14,10  z" class="primitive"/>
    </g>
    <g stroke="#000000" id="img-3fbdf1ba-77">
      <g transform="translate(202.86,10)">
        <g class="primitive">
          <text text-anchor="middle" dy="0.35em">←</text>
        </g>
      </g>
    </g>
  </g>
  <g stroke="#808080" fill="#FFFFFF" id="img-3fbdf1ba-78">
    <g transform="translate(202.86,30)">
      <path d="M-7.14,-10 L7.14,-10 7.14,10 -7.14,10  z" class="primitive"/>
    </g>
    <g stroke="#000000" id="img-3fbdf1ba-79">
      <g transform="translate(202.86,30)">
        <g class="primitive">
          <text text-anchor="middle" dy="0.35em">↑</text>
        </g>
      </g>
    </g>
  </g>
  <g stroke="#808080" fill="#FFFFFF" id="img-3fbdf1ba-80">
    <g transform="translate(202.86,50)">
      <path d="M-7.14,-10 L7.14,-10 7.14,10 -7.14,10  z" class="primitive"/>
    </g>
    <g stroke="#000000" id="img-3fbdf1ba-81">
      <g transform="translate(202.86,50)">
        <g class="primitive">
          <text text-anchor="middle" dy="0.35em">↑</text>
        </g>
      </g>
    </g>
  </g>
  <g stroke="#808080" fill="#FFFFFF" id="img-3fbdf1ba-82">
    <g transform="translate(202.86,70)">
      <path d="M-7.14,-10 L7.14,-10 7.14,10 -7.14,10  z" class="primitive"/>
    </g>
    <g stroke="#000000" id="img-3fbdf1ba-83">
      <g transform="translate(202.86,70)">
        <g class="primitive">
          <text text-anchor="middle" dy="0.35em">↑</text>
        </g>
      </g>
    </g>
  </g>
  <g stroke="#808080" fill="#FFFFFF" id="img-3fbdf1ba-84">
    <g transform="translate(202.86,90)">
      <path d="M-7.14,-10 L7.14,-10 7.14,10 -7.14,10  z" class="primitive"/>
    </g>
    <g stroke="#000000" id="img-3fbdf1ba-85">
      <g transform="translate(202.86,90)">
        <g class="primitive">
          <text text-anchor="middle" dy="0.35em">↑</text>
        </g>
      </g>
    </g>
  </g>
  <g stroke="#808080" fill="#FFFFFF" id="img-3fbdf1ba-86">
    <g transform="translate(188.57,10)">
      <path d="M-7.14,-10 L7.14,-10 7.14,10 -7.14,10  z" class="primitive"/>
    </g>
    <g stroke="#000000" id="img-3fbdf1ba-87">
      <g transform="translate(188.57,10)">
        <g class="primitive">
          <text text-anchor="middle" dy="0.35em">→</text>
        </g>
      </g>
    </g>
  </g>
  <g stroke="#808080" fill="#FFFFFF" id="img-3fbdf1ba-88">
    <g transform="translate(188.57,30)">
      <path d="M-7.14,-10 L7.14,-10 7.14,10 -7.14,10  z" class="primitive"/>
    </g>
    <g stroke="#000000" id="img-3fbdf1ba-89">
      <g transform="translate(188.57,30)">
        <g class="primitive">
          <text text-anchor="middle" dy="0.35em">↑</text>
        </g>
      </g>
    </g>
  </g>
  <g stroke="#808080" fill="#FFFFFF" id="img-3fbdf1ba-90">
    <g transform="translate(188.57,50)">
      <path d="M-7.14,-10 L7.14,-10 7.14,10 -7.14,10  z" class="primitive"/>
    </g>
    <g stroke="#000000" id="img-3fbdf1ba-91">
      <g transform="translate(188.57,50)">
        <g class="primitive">
          <text text-anchor="middle" dy="0.35em">→</text>
        </g>
      </g>
    </g>
  </g>
  <g stroke="#808080" fill="#FFFFFF" id="img-3fbdf1ba-92">
    <g transform="translate(188.57,70)">
      <path d="M-7.14,-10 L7.14,-10 7.14,10 -7.14,10  z" class="primitive"/>
    </g>
    <g stroke="#000000" id="img-3fbdf1ba-93">
      <g transform="translate(188.57,70)">
        <g class="primitive">
          <text text-anchor="middle" dy="0.35em">↓</text>
        </g>
      </g>
    </g>
  </g>
  <g stroke="#808080" fill="#FFFFFF" id="img-3fbdf1ba-94">
    <g transform="translate(188.57,90)">
      <path d="M-7.14,-10 L7.14,-10 7.14,10 -7.14,10  z" class="primitive"/>
    </g>
    <g stroke="#000000" id="img-3fbdf1ba-95">
      <g transform="translate(188.57,90)">
        <g class="primitive">
          <text text-anchor="middle" dy="0.35em">→</text>
        </g>
      </g>
    </g>
  </g>
  <g stroke="#808080" fill="#FF0000" id="img-3fbdf1ba-96">
    <g transform="translate(174.29,10)">
      <path d="M-7.14,-10 L7.14,-10 7.14,10 -7.14,10  z" class="primitive"/>
    </g>
    <g stroke="#000000" id="img-3fbdf1ba-97">
      <g transform="translate(174.29,10)">
        <g class="primitive">
          <text text-anchor="middle" dy="0.35em">↓</text>
        </g>
      </g>
    </g>
  </g>
  <g stroke="#808080" fill="#FFFFFF" id="img-3fbdf1ba-98">
    <g transform="translate(174.29,30)">
      <path d="M-7.14,-10 L7.14,-10 7.14,10 -7.14,10  z" class="primitive"/>
    </g>
    <g stroke="#000000" id="img-3fbdf1ba-99">
      <g transform="translate(174.29,30)">
        <g class="primitive">
          <text text-anchor="middle" dy="0.35em">↓</text>
        </g>
      </g>
    </g>
  </g>
  <g stroke="#808080" fill="#FFFFFF" id="img-3fbdf1ba-100">
    <g transform="translate(174.29,50)">
      <path d="M-7.14,-10 L7.14,-10 7.14,10 -7.14,10  z" class="primitive"/>
    </g>
    <g stroke="#000000" id="img-3fbdf1ba-101">
      <g transform="translate(174.29,50)">
        <g class="primitive">
          <text text-anchor="middle" dy="0.35em">→</text>
        </g>
      </g>
    </g>
  </g>
  <g stroke="#808080" fill="#FFFFFF" id="img-3fbdf1ba-102">
    <g transform="translate(174.29,70)">
      <path d="M-7.14,-10 L7.14,-10 7.14,10 -7.14,10  z" class="primitive"/>
    </g>
    <g stroke="#000000" id="img-3fbdf1ba-103">
      <g transform="translate(174.29,70)">
        <g class="primitive">
          <text text-anchor="middle" dy="0.35em">↑</text>
        </g>
      </g>
    </g>
  </g>
  <g stroke="#808080" fill="#FF0000" id="img-3fbdf1ba-104">
    <g transform="translate(174.29,90)">
      <path d="M-7.14,-10 L7.14,-10 7.14,10 -7.14,10  z" class="primitive"/>
    </g>
    <g stroke="#000000" id="img-3fbdf1ba-105">
      <g transform="translate(174.29,90)">
        <g class="primitive">
          <text text-anchor="middle" dy="0.35em">↓</text>
        </g>
      </g>
    </g>
  </g>
  <g stroke="#808080" fill="#FF0000" id="img-3fbdf1ba-106">
    <g transform="translate(160,10)">
      <path d="M-7.14,-10 L7.14,-10 7.14,10 -7.14,10  z" class="primitive"/>
    </g>
    <g stroke="#000000" id="img-3fbdf1ba-107">
      <g transform="translate(160,10)">
        <g class="primitive">
          <text text-anchor="middle" dy="0.35em">←</text>
        </g>
      </g>
    </g>
  </g>
  <g stroke="#808080" fill="#FFFFFF" id="img-3fbdf1ba-108">
    <g transform="translate(160,30)">
      <path d="M-7.14,-10 L7.14,-10 7.14,10 -7.14,10  z" class="primitive"/>
    </g>
    <g stroke="#000000" id="img-3fbdf1ba-109">
      <g transform="translate(160,30)">
        <g class="primitive">
          <text text-anchor="middle" dy="0.35em">→</text>
        </g>
      </g>
    </g>
  </g>
  <g stroke="#808080" fill="#FFFFFF" id="img-3fbdf1ba-110">
    <g transform="translate(160,50)">
      <path d="M-7.14,-10 L7.14,-10 7.14,10 -7.14,10  z" class="primitive"/>
    </g>
    <g stroke="#000000" id="img-3fbdf1ba-111">
      <g transform="translate(160,50)">
        <g class="primitive">
          <text text-anchor="middle" dy="0.35em">→</text>
        </g>
      </g>
    </g>
  </g>
  <g stroke="#808080" fill="#FFFFFF" id="img-3fbdf1ba-112">
    <g transform="translate(160,70)">
      <path d="M-7.14,-10 L7.14,-10 7.14,10 -7.14,10  z" class="primitive"/>
    </g>
    <g stroke="#000000" id="img-3fbdf1ba-113">
      <g transform="translate(160,70)">
        <g class="primitive">
          <text text-anchor="middle" dy="0.35em">↑</text>
        </g>
      </g>
    </g>
  </g>
  <g stroke="#808080" fill="#FF0000" id="img-3fbdf1ba-114">
    <g transform="translate(160,90)">
      <path d="M-7.14,-10 L7.14,-10 7.14,10 -7.14,10  z" class="primitive"/>
    </g>
    <g stroke="#000000" id="img-3fbdf1ba-115">
      <g transform="translate(160,90)">
        <g class="primitive">
          <text text-anchor="middle" dy="0.35em">↑</text>
        </g>
      </g>
    </g>
  </g>
  <g stroke="#808080" fill="#FF0000" id="img-3fbdf1ba-116">
    <g transform="translate(145.71,10)">
      <path d="M-7.14,-10 L7.14,-10 7.14,10 -7.14,10  z" class="primitive"/>
    </g>
    <g stroke="#000000" id="img-3fbdf1ba-117">
      <g transform="translate(145.71,10)">
        <g class="primitive">
          <text text-anchor="middle" dy="0.35em">→</text>
        </g>
      </g>
    </g>
  </g>
  <g stroke="#808080" fill="#FFFFFF" id="img-3fbdf1ba-118">
    <g transform="translate(145.71,30)">
      <path d="M-7.14,-10 L7.14,-10 7.14,10 -7.14,10  z" class="primitive"/>
    </g>
    <g stroke="#000000" id="img-3fbdf1ba-119">
      <g transform="translate(145.71,30)">
        <g class="primitive">
          <text text-anchor="middle" dy="0.35em">→</text>
        </g>
      </g>
    </g>
  </g>
  <g stroke="#808080" fill="#FFFFFF" id="img-3fbdf1ba-120">
    <g transform="translate(145.71,50)">
      <path d="M-7.14,-10 L7.14,-10 7.14,10 -7.14,10  z" class="primitive"/>
    </g>
    <g stroke="#000000" id="img-3fbdf1ba-121">
      <g transform="translate(145.71,50)">
        <g class="primitive">
          <text text-anchor="middle" dy="0.35em">→</text>
        </g>
      </g>
    </g>
  </g>
  <g stroke="#808080" fill="#FFFFFF" id="img-3fbdf1ba-122">
    <g transform="translate(145.71,70)">
      <path d="M-7.14,-10 L7.14,-10 7.14,10 -7.14,10  z" class="primitive"/>
    </g>
    <g stroke="#000000" id="img-3fbdf1ba-123">
      <g transform="translate(145.71,70)">
        <g class="primitive">
          <text text-anchor="middle" dy="0.35em">→</text>
        </g>
      </g>
    </g>
  </g>
  <g stroke="#808080" fill="#FF0000" id="img-3fbdf1ba-124">
    <g transform="translate(145.71,90)">
      <path d="M-7.14,-10 L7.14,-10 7.14,10 -7.14,10  z" class="primitive"/>
    </g>
    <g stroke="#000000" id="img-3fbdf1ba-125">
      <g transform="translate(145.71,90)">
        <g class="primitive">
          <text text-anchor="middle" dy="0.35em">↑</text>
        </g>
      </g>
    </g>
  </g>
  <g stroke="#808080" fill="#FFFFFF" id="img-3fbdf1ba-126">
    <g transform="translate(131.43,10)">
      <path d="M-7.14,-10 L7.14,-10 7.14,10 -7.14,10  z" class="primitive"/>
    </g>
    <g stroke="#000000" id="img-3fbdf1ba-127">
      <g transform="translate(131.43,10)">
        <g class="primitive">
          <text text-anchor="middle" dy="0.35em">↓</text>
        </g>
      </g>
    </g>
  </g>
  <g stroke="#808080" fill="#FFFFFF" id="img-3fbdf1ba-128">
    <g transform="translate(131.43,30)">
      <path d="M-7.14,-10 L7.14,-10 7.14,10 -7.14,10  z" class="primitive"/>
    </g>
    <g stroke="#000000" id="img-3fbdf1ba-129">
      <g transform="translate(131.43,30)">
        <g class="primitive">
          <text text-anchor="middle" dy="0.35em">→</text>
        </g>
      </g>
    </g>
  </g>
  <g stroke="#808080" fill="#FFFFFF" id="img-3fbdf1ba-130">
    <g transform="translate(131.43,50)">
      <path d="M-7.14,-10 L7.14,-10 7.14,10 -7.14,10  z" class="primitive"/>
    </g>
    <g stroke="#000000" id="img-3fbdf1ba-131">
      <g transform="translate(131.43,50)">
        <g class="primitive">
          <text text-anchor="middle" dy="0.35em">→</text>
        </g>
      </g>
    </g>
  </g>
  <g stroke="#808080" fill="#FFFFFF" id="img-3fbdf1ba-132">
    <g transform="translate(131.43,70)">
      <path d="M-7.14,-10 L7.14,-10 7.14,10 -7.14,10  z" class="primitive"/>
    </g>
    <g stroke="#000000" id="img-3fbdf1ba-133">
      <g transform="translate(131.43,70)">
        <g class="primitive">
          <text text-anchor="middle" dy="0.35em">→</text>
        </g>
      </g>
    </g>
  </g>
  <g stroke="#808080" fill="#FFFFFF" id="img-3fbdf1ba-134">
    <g transform="translate(131.43,90)">
      <path d="M-7.14,-10 L7.14,-10 7.14,10 -7.14,10  z" class="primitive"/>
    </g>
    <g stroke="#000000" id="img-3fbdf1ba-135">
      <g transform="translate(131.43,90)">
        <g class="primitive">
          <text text-anchor="middle" dy="0.35em">↑</text>
        </g>
      </g>
    </g>
  </g>
  <g stroke="#808080" fill="#FFFFFF" id="img-3fbdf1ba-136">
    <g transform="translate(117.14,10)">
      <path d="M-7.14,-10 L7.14,-10 7.14,10 -7.14,10  z" class="primitive"/>
    </g>
    <g stroke="#000000" id="img-3fbdf1ba-137">
      <g transform="translate(117.14,10)">
        <g class="primitive">
          <text text-anchor="middle" dy="0.35em">↓</text>
        </g>
      </g>
    </g>
  </g>
  <g stroke="#808080" fill="#FFFFFF" id="img-3fbdf1ba-138">
    <g transform="translate(117.14,30)">
      <path d="M-7.14,-10 L7.14,-10 7.14,10 -7.14,10  z" class="primitive"/>
    </g>
    <g stroke="#000000" id="img-3fbdf1ba-139">
      <g transform="translate(117.14,30)">
        <g class="primitive">
          <text text-anchor="middle" dy="0.35em">→</text>
        </g>
      </g>
    </g>
  </g>
  <g stroke="#808080" fill="#FFFFFF" id="img-3fbdf1ba-140">
    <g transform="translate(117.14,50)">
      <path d="M-7.14,-10 L7.14,-10 7.14,10 -7.14,10  z" class="primitive"/>
    </g>
    <g stroke="#000000" id="img-3fbdf1ba-141">
      <g transform="translate(117.14,50)">
        <g class="primitive">
          <text text-anchor="middle" dy="0.35em">→</text>
        </g>
      </g>
    </g>
  </g>
  <g stroke="#808080" fill="#FFFFFF" id="img-3fbdf1ba-142">
    <g transform="translate(117.14,70)">
      <path d="M-7.14,-10 L7.14,-10 7.14,10 -7.14,10  z" class="primitive"/>
    </g>
    <g stroke="#000000" id="img-3fbdf1ba-143">
      <g transform="translate(117.14,70)">
        <g class="primitive">
          <text text-anchor="middle" dy="0.35em">→</text>
        </g>
      </g>
    </g>
  </g>
  <g stroke="#808080" fill="#FFFFFF" id="img-3fbdf1ba-144">
    <g transform="translate(117.14,90)">
      <path d="M-7.14,-10 L7.14,-10 7.14,10 -7.14,10  z" class="primitive"/>
    </g>
    <g stroke="#000000" id="img-3fbdf1ba-145">
      <g transform="translate(117.14,90)">
        <g class="primitive">
          <text text-anchor="middle" dy="0.35em">↑</text>
        </g>
      </g>
    </g>
  </g>
</g>
<g fill="#FFA500" id="img-3fbdf1ba-146">
  <g transform="translate(202.86,10)">
    <circle cx="0" cy="0" r="5.71" class="primitive"/>
  </g>
</g>
<g transform="translate(105,50)">
  <path d="M-5,-0 L5,-0 5,0 -5,0  z" class="primitive"/>
</g>
<g stroke="#808080" stroke-width="1" id="img-3fbdf1ba-147">
  <g transform="translate(50,50)">
    <path d="M-50,-50 L50,-50 50,50 -50,50  z" class="primitive"/>
  </g>
</g>
<g stroke-width="0.5" id="img-3fbdf1ba-148">
  <g stroke="#808080" fill="#008015" id="img-3fbdf1ba-149">
    <g transform="translate(92.86,10)">
      <path d="M-7.14,-10 L7.14,-10 7.14,10 -7.14,10  z" class="primitive"/>
    </g>
    <g stroke="#000000" id="img-3fbdf1ba-150">
      <g transform="translate(92.86,10)">
        <g class="primitive">
          <text text-anchor="middle" dy="0.35em">←</text>
        </g>
      </g>
    </g>
  </g>
  <g stroke="#808080" fill="#008015" id="img-3fbdf1ba-151">
    <g transform="translate(92.86,30)">
      <path d="M-7.14,-10 L7.14,-10 7.14,10 -7.14,10  z" class="primitive"/>
    </g>
    <g stroke="#000000" id="img-3fbdf1ba-152">
      <g transform="translate(92.86,30)">
        <g class="primitive">
          <text text-anchor="middle" dy="0.35em">↑</text>
        </g>
      </g>
    </g>
  </g>
  <g stroke="#808080" fill="#008015" id="img-3fbdf1ba-153">
    <g transform="translate(92.86,50)">
      <path d="M-7.14,-10 L7.14,-10 7.14,10 -7.14,10  z" class="primitive"/>
    </g>
    <g stroke="#000000" id="img-3fbdf1ba-154">
      <g transform="translate(92.86,50)">
        <g class="primitive">
          <text text-anchor="middle" dy="0.35em">↑</text>
        </g>
      </g>
    </g>
  </g>
  <g stroke="#808080" fill="#9CCEA4" id="img-3fbdf1ba-155">
    <g transform="translate(92.86,70)">
      <path d="M-7.14,-10 L7.14,-10 7.14,10 -7.14,10  z" class="primitive"/>
    </g>
    <g stroke="#000000" id="img-3fbdf1ba-156">
      <g transform="translate(92.86,70)">
        <g class="primitive">
          <text text-anchor="middle" dy="0.35em">↑</text>
        </g>
      </g>
    </g>
  </g>
  <g stroke="#808080" fill="#E6F3E8" id="img-3fbdf1ba-157">
    <g transform="translate(92.86,90)">
      <path d="M-7.14,-10 L7.14,-10 7.14,10 -7.14,10  z" class="primitive"/>
    </g>
    <g stroke="#000000" id="img-3fbdf1ba-158">
      <g transform="translate(92.86,90)">
        <g class="primitive">
          <text text-anchor="middle" dy="0.35em">↑</text>
        </g>
      </g>
    </g>
  </g>
  <g stroke="#808080" fill="#1A8D2D" id="img-3fbdf1ba-159">
    <g transform="translate(78.57,10)">
      <path d="M-7.14,-10 L7.14,-10 7.14,10 -7.14,10  z" class="primitive"/>
    </g>
    <g stroke="#000000" id="img-3fbdf1ba-160">
      <g transform="translate(78.57,10)">
        <g class="primitive">
          <text text-anchor="middle" dy="0.35em">→</text>
        </g>
      </g>
    </g>
  </g>
  <g stroke="#808080" fill="#359A45" id="img-3fbdf1ba-161">
    <g transform="translate(78.57,30)">
      <path d="M-7.14,-10 L7.14,-10 7.14,10 -7.14,10  z" class="primitive"/>
    </g>
    <g stroke="#000000" id="img-3fbdf1ba-162">
      <g transform="translate(78.57,30)">
        <g class="primitive">
          <text text-anchor="middle" dy="0.35em">↑</text>
        </g>
      </g>
    </g>
  </g>
  <g stroke="#808080" fill="#008015" id="img-3fbdf1ba-163">
    <g transform="translate(78.57,50)">
      <path d="M-7.14,-10 L7.14,-10 7.14,10 -7.14,10  z" class="primitive"/>
    </g>
    <g stroke="#000000" id="img-3fbdf1ba-164">
      <g transform="translate(78.57,50)">
        <g class="primitive">
          <text text-anchor="middle" dy="0.35em">→</text>
        </g>
      </g>
    </g>
  </g>
  <g stroke="#808080" fill="#CEE6D2" id="img-3fbdf1ba-165">
    <g transform="translate(78.57,70)">
      <path d="M-7.14,-10 L7.14,-10 7.14,10 -7.14,10  z" class="primitive"/>
    </g>
    <g stroke="#000000" id="img-3fbdf1ba-166">
      <g transform="translate(78.57,70)">
        <g class="primitive">
          <text text-anchor="middle" dy="0.35em">→</text>
        </g>
      </g>
    </g>
  </g>
  <g stroke="#808080" fill="#E6F3E8" id="img-3fbdf1ba-167">
    <g transform="translate(78.57,90)">
      <path d="M-7.14,-10 L7.14,-10 7.14,10 -7.14,10  z" class="primitive"/>
    </g>
    <g stroke="#000000" id="img-3fbdf1ba-168">
      <g transform="translate(78.57,90)">
        <g class="primitive">
          <text text-anchor="middle" dy="0.35em">↑</text>
        </g>
      </g>
    </g>
  </g>
  <g stroke="#808080" fill="#FF0000" id="img-3fbdf1ba-169">
    <g transform="translate(64.29,10)">
      <path d="M-7.14,-10 L7.14,-10 7.14,10 -7.14,10  z" class="primitive"/>
    </g>
    <g stroke="#000000" id="img-3fbdf1ba-170">
      <g transform="translate(64.29,10)">
        <g class="primitive">
          <text text-anchor="middle" dy="0.35em">←</text>
        </g>
      </g>
    </g>
  </g>
  <g stroke="#808080" fill="#42A151" id="img-3fbdf1ba-171">
    <g transform="translate(64.29,30)">
      <path d="M-7.14,-10 L7.14,-10 7.14,10 -7.14,10  z" class="primitive"/>
    </g>
    <g stroke="#000000" id="img-3fbdf1ba-172">
      <g transform="translate(64.29,30)">
        <g class="primitive">
          <text text-anchor="middle" dy="0.35em">→</text>
        </g>
      </g>
    </g>
  </g>
  <g stroke="#808080" fill="#008015" id="img-3fbdf1ba-173">
    <g transform="translate(64.29,50)">
      <path d="M-7.14,-10 L7.14,-10 7.14,10 -7.14,10  z" class="primitive"/>
    </g>
    <g stroke="#000000" id="img-3fbdf1ba-174">
      <g transform="translate(64.29,50)">
        <g class="primitive">
          <text text-anchor="middle" dy="0.35em">→</text>
        </g>
      </g>
    </g>
  </g>
  <g stroke="#808080" fill="#DAEDDD" id="img-3fbdf1ba-175">
    <g transform="translate(64.29,70)">
      <path d="M-7.14,-10 L7.14,-10 7.14,10 -7.14,10  z" class="primitive"/>
    </g>
    <g stroke="#000000" id="img-3fbdf1ba-176">
      <g transform="translate(64.29,70)">
        <g class="primitive">
          <text text-anchor="middle" dy="0.35em">↑</text>
        </g>
      </g>
    </g>
  </g>
  <g stroke="#808080" fill="#FF0000" id="img-3fbdf1ba-177">
    <g transform="translate(64.29,90)">
      <path d="M-7.14,-10 L7.14,-10 7.14,10 -7.14,10  z" class="primitive"/>
    </g>
    <g stroke="#000000" id="img-3fbdf1ba-178">
      <g transform="translate(64.29,90)">
        <g class="primitive">
          <text text-anchor="middle" dy="0.35em">←</text>
        </g>
      </g>
    </g>
  </g>
  <g stroke="#808080" fill="#FF0000" id="img-3fbdf1ba-179">
    <g transform="translate(50,10)">
      <path d="M-7.14,-10 L7.14,-10 7.14,10 -7.14,10  z" class="primitive"/>
    </g>
    <g stroke="#000000" id="img-3fbdf1ba-180">
      <g transform="translate(50,10)">
        <g class="primitive">
          <text text-anchor="middle" dy="0.35em">←</text>
        </g>
      </g>
    </g>
  </g>
  <g stroke="#808080" fill="#42A151" id="img-3fbdf1ba-181">
    <g transform="translate(50,30)">
      <path d="M-7.14,-10 L7.14,-10 7.14,10 -7.14,10  z" class="primitive"/>
    </g>
    <g stroke="#000000" id="img-3fbdf1ba-182">
      <g transform="translate(50,30)">
        <g class="primitive">
          <text text-anchor="middle" dy="0.35em">→</text>
        </g>
      </g>
    </g>
  </g>
  <g stroke="#808080" fill="#008015" id="img-3fbdf1ba-183">
    <g transform="translate(50,50)">
      <path d="M-7.14,-10 L7.14,-10 7.14,10 -7.14,10  z" class="primitive"/>
    </g>
    <g stroke="#000000" id="img-3fbdf1ba-184">
      <g transform="translate(50,50)">
        <g class="primitive">
          <text text-anchor="middle" dy="0.35em">→</text>
        </g>
      </g>
    </g>
  </g>
  <g stroke="#808080" fill="#0D8721" id="img-3fbdf1ba-185">
    <g transform="translate(50,70)">
      <path d="M-7.14,-10 L7.14,-10 7.14,10 -7.14,10  z" class="primitive"/>
    </g>
    <g stroke="#000000" id="img-3fbdf1ba-186">
      <g transform="translate(50,70)">
        <g class="primitive">
          <text text-anchor="middle" dy="0.35em">↑</text>
        </g>
      </g>
    </g>
  </g>
  <g stroke="#808080" fill="#FF0000" id="img-3fbdf1ba-187">
    <g transform="translate(50,90)">
      <path d="M-7.14,-10 L7.14,-10 7.14,10 -7.14,10  z" class="primitive"/>
    </g>
    <g stroke="#000000" id="img-3fbdf1ba-188">
      <g transform="translate(50,90)">
        <g class="primitive">
          <text text-anchor="middle" dy="0.35em">←</text>
        </g>
      </g>
    </g>
  </g>
  <g stroke="#808080" fill="#FF0000" id="img-3fbdf1ba-189">
    <g transform="translate(35.71,10)">
      <path d="M-7.14,-10 L7.14,-10 7.14,10 -7.14,10  z" class="primitive"/>
    </g>
    <g stroke="#000000" id="img-3fbdf1ba-190">
      <g transform="translate(35.71,10)">
        <g class="primitive">
          <text text-anchor="middle" dy="0.35em">←</text>
        </g>
      </g>
    </g>
  </g>
  <g stroke="#808080" fill="#4FA75D" id="img-3fbdf1ba-191">
    <g transform="translate(35.71,30)">
      <path d="M-7.14,-10 L7.14,-10 7.14,10 -7.14,10  z" class="primitive"/>
    </g>
    <g stroke="#000000" id="img-3fbdf1ba-192">
      <g transform="translate(35.71,30)">
        <g class="primitive">
          <text text-anchor="middle" dy="0.35em">→</text>
        </g>
      </g>
    </g>
  </g>
  <g stroke="#808080" fill="#77BB82" id="img-3fbdf1ba-193">
    <g transform="translate(35.71,50)">
      <path d="M-7.14,-10 L7.14,-10 7.14,10 -7.14,10  z" class="primitive"/>
    </g>
    <g stroke="#000000" id="img-3fbdf1ba-194">
      <g transform="translate(35.71,50)">
        <g class="primitive">
          <text text-anchor="middle" dy="0.35em">→</text>
        </g>
      </g>
    </g>
  </g>
  <g stroke="#808080" fill="#289439" id="img-3fbdf1ba-195">
    <g transform="translate(35.71,70)">
      <path d="M-7.14,-10 L7.14,-10 7.14,10 -7.14,10  z" class="primitive"/>
    </g>
    <g stroke="#000000" id="img-3fbdf1ba-196">
      <g transform="translate(35.71,70)">
        <g class="primitive">
          <text text-anchor="middle" dy="0.35em">→</text>
        </g>
      </g>
    </g>
  </g>
  <g stroke="#808080" fill="#FF0000" id="img-3fbdf1ba-197">
    <g transform="translate(35.71,90)">
      <path d="M-7.14,-10 L7.14,-10 7.14,10 -7.14,10  z" class="primitive"/>
    </g>
    <g stroke="#000000" id="img-3fbdf1ba-198">
      <g transform="translate(35.71,90)">
        <g class="primitive">
          <text text-anchor="middle" dy="0.35em">→</text>
        </g>
      </g>
    </g>
  </g>
  <g stroke="#808080" fill="#DAEDDD" id="img-3fbdf1ba-199">
    <g transform="translate(21.43,10)">
      <path d="M-7.14,-10 L7.14,-10 7.14,10 -7.14,10  z" class="primitive"/>
    </g>
    <g stroke="#000000" id="img-3fbdf1ba-200">
      <g transform="translate(21.43,10)">
        <g class="primitive">
          <text text-anchor="middle" dy="0.35em">↓</text>
        </g>
      </g>
    </g>
  </g>
  <g stroke="#808080" fill="#77BB82" id="img-3fbdf1ba-201">
    <g transform="translate(21.43,30)">
      <path d="M-7.14,-10 L7.14,-10 7.14,10 -7.14,10  z" class="primitive"/>
    </g>
    <g stroke="#000000" id="img-3fbdf1ba-202">
      <g transform="translate(21.43,30)">
        <g class="primitive">
          <text text-anchor="middle" dy="0.35em">→</text>
        </g>
      </g>
    </g>
  </g>
  <g stroke="#808080" fill="#9CCEA4" id="img-3fbdf1ba-203">
    <g transform="translate(21.43,50)">
      <path d="M-7.14,-10 L7.14,-10 7.14,10 -7.14,10  z" class="primitive"/>
    </g>
    <g stroke="#000000" id="img-3fbdf1ba-204">
      <g transform="translate(21.43,50)">
        <g class="primitive">
          <text text-anchor="middle" dy="0.35em">→</text>
        </g>
      </g>
    </g>
  </g>
  <g stroke="#808080" fill="#4FA75D" id="img-3fbdf1ba-205">
    <g transform="translate(21.43,70)">
      <path d="M-7.14,-10 L7.14,-10 7.14,10 -7.14,10  z" class="primitive"/>
    </g>
    <g stroke="#000000" id="img-3fbdf1ba-206">
      <g transform="translate(21.43,70)">
        <g class="primitive">
          <text text-anchor="middle" dy="0.35em">→</text>
        </g>
      </g>
    </g>
  </g>
  <g stroke="#808080" fill="#DAEDDD" id="img-3fbdf1ba-207">
    <g transform="translate(21.43,90)">
      <path d="M-7.14,-10 L7.14,-10 7.14,10 -7.14,10  z" class="primitive"/>
    </g>
    <g stroke="#000000" id="img-3fbdf1ba-208">
      <g transform="translate(21.43,90)">
        <g class="primitive">
          <text text-anchor="middle" dy="0.35em">↑</text>
        </g>
      </g>
    </g>
  </g>
  <g stroke="#808080" fill="#C1E0C6" id="img-3fbdf1ba-209">
    <g transform="translate(7.14,10)">
      <path d="M-7.14,-10 L7.14,-10 7.14,10 -7.14,10  z" class="primitive"/>
    </g>
    <g stroke="#000000" id="img-3fbdf1ba-210">
      <g transform="translate(7.14,10)">
        <g class="primitive">
          <text text-anchor="middle" dy="0.35em">↓</text>
        </g>
      </g>
    </g>
  </g>
  <g stroke="#808080" fill="#9CCEA4" id="img-3fbdf1ba-211">
    <g transform="translate(7.14,30)">
      <path d="M-7.14,-10 L7.14,-10 7.14,10 -7.14,10  z" class="primitive"/>
    </g>
    <g stroke="#000000" id="img-3fbdf1ba-212">
      <g transform="translate(7.14,30)">
        <g class="primitive">
          <text text-anchor="middle" dy="0.35em">→</text>
        </g>
      </g>
    </g>
  </g>
  <g stroke="#808080" fill="#C1E0C6" id="img-3fbdf1ba-213">
    <g transform="translate(7.14,50)">
      <path d="M-7.14,-10 L7.14,-10 7.14,10 -7.14,10  z" class="primitive"/>
    </g>
    <g stroke="#000000" id="img-3fbdf1ba-214">
      <g transform="translate(7.14,50)">
        <g class="primitive">
          <text text-anchor="middle" dy="0.35em">→</text>
        </g>
      </g>
    </g>
  </g>
  <g stroke="#808080" fill="#A9D4B0" id="img-3fbdf1ba-215">
    <g transform="translate(7.14,70)">
      <path d="M-7.14,-10 L7.14,-10 7.14,10 -7.14,10  z" class="primitive"/>
    </g>
    <g stroke="#000000" id="img-3fbdf1ba-216">
      <g transform="translate(7.14,70)">
        <g class="primitive">
          <text text-anchor="middle" dy="0.35em">→</text>
        </g>
      </g>
    </g>
  </g>
  <g stroke="#808080" fill="#DAEDDD" id="img-3fbdf1ba-217">
    <g transform="translate(7.14,90)">
      <path d="M-7.14,-10 L7.14,-10 7.14,10 -7.14,10  z" class="primitive"/>
    </g>
    <g stroke="#000000" id="img-3fbdf1ba-218">
      <g transform="translate(7.14,90)">
        <g class="primitive">
          <text text-anchor="middle" dy="0.35em">↑</text>
        </g>
      </g>
    </g>
  </g>
</g>
<g fill="#FFA500" id="img-3fbdf1ba-219">
  <g transform="translate(92.86,10)">
    <circle cx="0" cy="0" r="5.71" class="primitive"/>
  </g>
</g>
</svg>
