<?xml version="1.0" encoding="UTF-8"?>
<svg xmlns="http://www.w3.org/2000/svg"
     xmlns:xlink="http://www.w3.org/1999/xlink"
     version="1.2"
     width="350mm" height="100mm" viewBox="0 0 350 100"
     stroke="none"
     fill="#000000"
     stroke-width="0.3"
     font-size="3.88"
>
<defs>
  <marker id="arrow" markerWidth="15" markerHeight="7" refX="5" refY="3.5" orient="auto" markerUnits="strokeWidth">
    <path d="M0,0 L15,3.5 L0,7 z" stroke="context-stroke" fill="context-stroke"/>
  </marker>
</defs>
<g stroke="#808080" stroke-width="1" id="img-0b78b7bc-1">
  <g transform="translate(270,50)">
    <path d="M-50,-50 L50,-50 50,50 -50,50  z" class="primitive"/>
  </g>
</g>
<g stroke-width="0.5" id="img-0b78b7bc-2">
  <g stroke="#808080" fill="#008015" id="img-0b78b7bc-3">
    <g transform="translate(312.86,10)">
      <path d="M-7.14,-10 L7.14,-10 7.14,10 -7.14,10  z" class="primitive"/>
    </g>
    <g stroke="#000000" id="img-0b78b7bc-4">
      <g transform="translate(312.86,10)">
        <g class="primitive">
          <text text-anchor="middle" dy="0.35em">→</text>
        </g>
      </g>
    </g>
  </g>
  <g stroke="#808080" fill="#FFFFFF" id="img-0b78b7bc-5">
    <g transform="translate(312.86,30)">
      <path d="M-7.14,-10 L7.14,-10 7.14,10 -7.14,10  z" class="primitive"/>
    </g>
    <g stroke="#000000" id="img-0b78b7bc-6">
      <g transform="translate(312.86,30)">
        <g class="primitive">
          <text text-anchor="middle" dy="0.35em">↑</text>
        </g>
      </g>
    </g>
  </g>
  <g stroke="#808080" fill="#FFFFFF" id="img-0b78b7bc-7">
    <g transform="translate(312.86,50)">
      <path d="M-7.14,-10 L7.14,-10 7.14,10 -7.14,10  z" class="primitive"/>
    </g>
    <g stroke="#000000" id="img-0b78b7bc-8">
      <g transform="translate(312.86,50)">
        <g class="primitive">
          <text text-anchor="middle" dy="0.35em">↑</text>
        </g>
      </g>
    </g>
  </g>
  <g stroke="#808080" fill="#FFFFFF" id="img-0b78b7bc-9">
    <g transform="translate(312.86,70)">
      <path d="M-7.14,-10 L7.14,-10 7.14,10 -7.14,10  z" class="primitive"/>
    </g>
    <g stroke="#000000" id="img-0b78b7bc-10">
      <g transform="translate(312.86,70)">
        <g class="primitive">
          <text text-anchor="middle" dy="0.35em">↑</text>
        </g>
      </g>
    </g>
  </g>
  <g stroke="#808080" fill="#FFFFFF" id="img-0b78b7bc-11">
    <g transform="translate(312.86,90)">
      <path d="M-7.14,-10 L7.14,-10 7.14,10 -7.14,10  z" class="primitive"/>
    </g>
    <g stroke="#000000" id="img-0b78b7bc-12">
      <g transform="translate(312.86,90)">
        <g class="primitive">
          <text text-anchor="middle" dy="0.35em">↑</text>
        </g>
      </g>
    </g>
  </g>
  <g stroke="#808080" fill="#FFFFFF" id="img-0b78b7bc-13">
    <g transform="translate(298.57,10)">
      <path d="M-7.14,-10 L7.14,-10 7.14,10 -7.14,10  z" class="primitive"/>
    </g>
    <g stroke="#000000" id="img-0b78b7bc-14">
      <g transform="translate(298.57,10)">
        <g class="primitive">
          <text text-anchor="middle" dy="0.35em">→</text>
        </g>
      </g>
    </g>
  </g>
  <g stroke="#808080" fill="#FFFFFF" id="img-0b78b7bc-15">
    <g transform="translate(298.57,30)">
      <path d="M-7.14,-10 L7.14,-10 7.14,10 -7.14,10  z" class="primitive"/>
    </g>
    <g stroke="#000000" id="img-0b78b7bc-16">
      <g transform="translate(298.57,30)">
        <g class="primitive">
          <text text-anchor="middle" dy="0.35em">→</text>
        </g>
      </g>
    </g>
  </g>
  <g stroke="#808080" fill="#FFFFFF" id="img-0b78b7bc-17">
    <g transform="translate(298.57,50)">
      <path d="M-7.14,-10 L7.14,-10 7.14,10 -7.14,10  z" class="primitive"/>
    </g>
    <g stroke="#000000" id="img-0b78b7bc-18">
      <g transform="translate(298.57,50)">
        <g class="primitive">
          <text text-anchor="middle" dy="0.35em">→</text>
        </g>
      </g>
    </g>
  </g>
  <g stroke="#808080" fill="#FFFFFF" id="img-0b78b7bc-19">
    <g transform="translate(298.57,70)">
      <path d="M-7.14,-10 L7.14,-10 7.14,10 -7.14,10  z" class="primitive"/>
    </g>
    <g stroke="#000000" id="img-0b78b7bc-20">
      <g transform="translate(298.57,70)">
        <g class="primitive">
          <text text-anchor="middle" dy="0.35em">↓</text>
        </g>
      </g>
    </g>
  </g>
  <g stroke="#808080" fill="#FFFFFF" id="img-0b78b7bc-21">
    <g transform="translate(298.57,90)">
      <path d="M-7.14,-10 L7.14,-10 7.14,10 -7.14,10  z" class="primitive"/>
    </g>
    <g stroke="#000000" id="img-0b78b7bc-22">
      <g transform="translate(298.57,90)">
        <g class="primitive">
          <text text-anchor="middle" dy="0.35em">→</text>
        </g>
      </g>
    </g>
  </g>
  <g stroke="#808080" fill="#FF0000" id="img-0b78b7bc-23">
    <g transform="translate(284.29,10)">
      <path d="M-7.14,-10 L7.14,-10 7.14,10 -7.14,10  z" class="primitive"/>
    </g>
    <g stroke="#000000" id="img-0b78b7bc-24">
      <g transform="translate(284.29,10)">
        <g class="primitive">
          <text text-anchor="middle" dy="0.35em">→</text>
        </g>
      </g>
    </g>
  </g>
  <g stroke="#808080" fill="#FFFFFF" id="img-0b78b7bc-25">
    <g transform="translate(284.29,30)">
      <path d="M-7.14,-10 L7.14,-10 7.14,10 -7.14,10  z" class="primitive"/>
    </g>
    <g stroke="#000000" id="img-0b78b7bc-26">
      <g transform="translate(284.29,30)">
        <g class="primitive">
          <text text-anchor="middle" dy="0.35em">→</text>
        </g>
      </g>
    </g>
  </g>
  <g stroke="#808080" fill="#FFFFFF" id="img-0b78b7bc-27">
    <g transform="translate(284.29,50)">
      <path d="M-7.14,-10 L7.14,-10 7.14,10 -7.14,10  z" class="primitive"/>
    </g>
    <g stroke="#000000" id="img-0b78b7bc-28">
      <g transform="translate(284.29,50)">
        <g class="primitive">
          <text text-anchor="middle" dy="0.35em">↑</text>
        </g>
      </g>
    </g>
  </g>
  <g stroke="#808080" fill="#FFFFFF" id="img-0b78b7bc-29">
    <g transform="translate(284.29,70)">
      <path d="M-7.14,-10 L7.14,-10 7.14,10 -7.14,10  z" class="primitive"/>
    </g>
    <g stroke="#000000" id="img-0b78b7bc-30">
      <g transform="translate(284.29,70)">
        <g class="primitive">
          <text text-anchor="middle" dy="0.35em">↓</text>
        </g>
      </g>
    </g>
  </g>
  <g stroke="#808080" fill="#FF0000" id="img-0b78b7bc-31">
    <g transform="translate(284.29,90)">
      <path d="M-7.14,-10 L7.14,-10 7.14,10 -7.14,10  z" class="primitive"/>
    </g>
    <g stroke="#000000" id="img-0b78b7bc-32">
      <g transform="translate(284.29,90)">
        <g class="primitive">
          <text text-anchor="middle" dy="0.35em">↓</text>
        </g>
      </g>
    </g>
  </g>
  <g stroke="#808080" fill="#FF0000" id="img-0b78b7bc-33">
    <g transform="translate(270,10)">
      <path d="M-7.14,-10 L7.14,-10 7.14,10 -7.14,10  z" class="primitive"/>
    </g>
    <g stroke="#000000" id="img-0b78b7bc-34">
      <g transform="translate(270,10)">
        <g class="primitive">
          <text text-anchor="middle" dy="0.35em">↓</text>
        </g>
      </g>
    </g>
  </g>
  <g stroke="#808080" fill="#FFFFFF" id="img-0b78b7bc-35">
    <g transform="translate(270,30)">
      <path d="M-7.14,-10 L7.14,-10 7.14,10 -7.14,10  z" class="primitive"/>
    </g>
    <g stroke="#000000" id="img-0b78b7bc-36">
      <g transform="translate(270,30)">
        <g class="primitive">
          <text text-anchor="middle" dy="0.35em">→</text>
        </g>
      </g>
    </g>
  </g>
  <g stroke="#808080" fill="#FFFFFF" id="img-0b78b7bc-37">
    <g transform="translate(270,50)">
      <path d="M-7.14,-10 L7.14,-10 7.14,10 -7.14,10  z" class="primitive"/>
    </g>
    <g stroke="#000000" id="img-0b78b7bc-38">
      <g transform="translate(270,50)">
        <g class="primitive">
          <text text-anchor="middle" dy="0.35em">→</text>
        </g>
      </g>
    </g>
  </g>
  <g stroke="#808080" fill="#FFFFFF" id="img-0b78b7bc-39">
    <g transform="translate(270,70)">
      <path d="M-7.14,-10 L7.14,-10 7.14,10 -7.14,10  z" class="primitive"/>
    </g>
    <g stroke="#000000" id="img-0b78b7bc-40">
      <g transform="translate(270,70)">
        <g class="primitive">
          <text text-anchor="middle" dy="0.35em">↑</text>
        </g>
      </g>
    </g>
  </g>
  <g stroke="#808080" fill="#FF0000" id="img-0b78b7bc-41">
    <g transform="translate(270,90)">
      <path d="M-7.14,-10 L7.14,-10 7.14,10 -7.14,10  z" class="primitive"/>
    </g>
    <g stroke="#000000" id="img-0b78b7bc-42">
      <g transform="translate(270,90)">
        <g class="primitive">
          <text text-anchor="middle" dy="0.35em">→</text>
        </g>
      </g>
    </g>
  </g>
  <g stroke="#808080" fill="#FF0000" id="img-0b78b7bc-43">
    <g transform="translate(255.71,10)">
      <path d="M-7.14,-10 L7.14,-10 7.14,10 -7.14,10  z" class="primitive"/>
    </g>
    <g stroke="#000000" id="img-0b78b7bc-44">
      <g transform="translate(255.71,10)">
        <g class="primitive">
          <text text-anchor="middle" dy="0.35em">→</text>
        </g>
      </g>
    </g>
  </g>
  <g stroke="#808080" fill="#FFFFFF" id="img-0b78b7bc-45">
    <g transform="translate(255.71,30)">
      <path d="M-7.14,-10 L7.14,-10 7.14,10 -7.14,10  z" class="primitive"/>
    </g>
    <g stroke="#000000" id="img-0b78b7bc-46">
      <g transform="translate(255.71,30)">
        <g class="primitive">
          <text text-anchor="middle" dy="0.35em">→</text>
        </g>
      </g>
    </g>
  </g>
  <g stroke="#808080" fill="#FFFFFF" id="img-0b78b7bc-47">
    <g transform="translate(255.71,50)">
      <path d="M-7.14,-10 L7.14,-10 7.14,10 -7.14,10  z" class="primitive"/>
    </g>
    <g stroke="#000000" id="img-0b78b7bc-48">
      <g transform="translate(255.71,50)">
        <g class="primitive">
          <text text-anchor="middle" dy="0.35em">→</text>
        </g>
      </g>
    </g>
  </g>
  <g stroke="#808080" fill="#FFFFFF" id="img-0b78b7bc-49">
    <g transform="translate(255.71,70)">
      <path d="M-7.14,-10 L7.14,-10 7.14,10 -7.14,10  z" class="primitive"/>
    </g>
    <g stroke="#000000" id="img-0b78b7bc-50">
      <g transform="translate(255.71,70)">
        <g class="primitive">
          <text text-anchor="middle" dy="0.35em">→</text>
        </g>
      </g>
    </g>
  </g>
  <g stroke="#808080" fill="#FF0000" id="img-0b78b7bc-51">
    <g transform="translate(255.71,90)">
      <path d="M-7.14,-10 L7.14,-10 7.14,10 -7.14,10  z" class="primitive"/>
    </g>
    <g stroke="#000000" id="img-0b78b7bc-52">
      <g transform="translate(255.71,90)">
        <g class="primitive">
          <text text-anchor="middle" dy="0.35em">→</text>
        </g>
      </g>
    </g>
  </g>
  <g stroke="#808080" fill="#FFFFFF" id="img-0b78b7bc-53">
    <g transform="translate(241.43,10)">
      <path d="M-7.14,-10 L7.14,-10 7.14,10 -7.14,10  z" class="primitive"/>
    </g>
    <g stroke="#000000" id="img-0b78b7bc-54">
      <g transform="translate(241.43,10)">
        <g class="primitive">
          <text text-anchor="middle" dy="0.35em">↓</text>
        </g>
      </g>
    </g>
  </g>
  <g stroke="#808080" fill="#FFFFFF" id="img-0b78b7bc-55">
    <g transform="translate(241.43,30)">
      <path d="M-7.14,-10 L7.14,-10 7.14,10 -7.14,10  z" class="primitive"/>
    </g>
    <g stroke="#000000" id="img-0b78b7bc-56">
      <g transform="translate(241.43,30)">
        <g class="primitive">
          <text text-anchor="middle" dy="0.35em">→</text>
        </g>
      </g>
    </g>
  </g>
  <g stroke="#808080" fill="#FFFFFF" id="img-0b78b7bc-57">
    <g transform="translate(241.43,50)">
      <path d="M-7.14,-10 L7.14,-10 7.14,10 -7.14,10  z" class="primitive"/>
    </g>
    <g stroke="#000000" id="img-0b78b7bc-58">
      <g transform="translate(241.43,50)">
        <g class="primitive">
          <text text-anchor="middle" dy="0.35em">→</text>
        </g>
      </g>
    </g>
  </g>
  <g stroke="#808080" fill="#FFFFFF" id="img-0b78b7bc-59">
    <g transform="translate(241.43,70)">
      <path d="M-7.14,-10 L7.14,-10 7.14,10 -7.14,10  z" class="primitive"/>
    </g>
    <g stroke="#000000" id="img-0b78b7bc-60">
      <g transform="translate(241.43,70)">
        <g class="primitive">
          <text text-anchor="middle" dy="0.35em">↑</text>
        </g>
      </g>
    </g>
  </g>
  <g stroke="#808080" fill="#FFFFFF" id="img-0b78b7bc-61">
    <g transform="translate(241.43,90)">
      <path d="M-7.14,-10 L7.14,-10 7.14,10 -7.14,10  z" class="primitive"/>
    </g>
    <g stroke="#000000" id="img-0b78b7bc-62">
      <g transform="translate(241.43,90)">
        <g class="primitive">
          <text text-anchor="middle" dy="0.35em">↑</text>
        </g>
      </g>
    </g>
  </g>
  <g stroke="#808080" fill="#FFFFFF" id="img-0b78b7bc-63">
    <g transform="translate(227.14,10)">
      <path d="M-7.14,-10 L7.14,-10 7.14,10 -7.14,10  z" class="primitive"/>
    </g>
    <g stroke="#000000" id="img-0b78b7bc-64">
      <g transform="translate(227.14,10)">
        <g class="primitive">
          <text text-anchor="middle" dy="0.35em">↓</text>
        </g>
      </g>
    </g>
  </g>
  <g stroke="#808080" fill="#FFFFFF" id="img-0b78b7bc-65">
    <g transform="translate(227.14,30)">
      <path d="M-7.14,-10 L7.14,-10 7.14,10 -7.14,10  z" class="primitive"/>
    </g>
    <g stroke="#000000" id="img-0b78b7bc-66">
      <g transform="translate(227.14,30)">
        <g class="primitive">
          <text text-anchor="middle" dy="0.35em">→</text>
        </g>
      </g>
    </g>
  </g>
  <g stroke="#808080" fill="#FFFFFF" id="img-0b78b7bc-67">
    <g transform="translate(227.14,50)">
      <path d="M-7.14,-10 L7.14,-10 7.14,10 -7.14,10  z" class="primitive"/>
    </g>
    <g stroke="#000000" id="img-0b78b7bc-68">
      <g transform="translate(227.14,50)">
        <g class="primitive">
          <text text-anchor="middle" dy="0.35em">→</text>
        </g>
      </g>
    </g>
  </g>
  <g stroke="#808080" fill="#FFFFFF" id="img-0b78b7bc-69">
    <g transform="translate(227.14,70)">
      <path d="M-7.14,-10 L7.14,-10 7.14,10 -7.14,10  z" class="primitive"/>
    </g>
    <g stroke="#000000" id="img-0b78b7bc-70">
      <g transform="translate(227.14,70)">
        <g class="primitive">
          <text text-anchor="middle" dy="0.35em">↑</text>
        </g>
      </g>
    </g>
  </g>
  <g stroke="#808080" fill="#FFFFFF" id="img-0b78b7bc-71">
    <g transform="translate(227.14,90)">
      <path d="M-7.14,-10 L7.14,-10 7.14,10 -7.14,10  z" class="primitive"/>
    </g>
    <g stroke="#000000" id="img-0b78b7bc-72">
      <g transform="translate(227.14,90)">
        <g class="primitive">
          <text text-anchor="middle" dy="0.35em">↑</text>
        </g>
      </g>
    </g>
  </g>
</g>
<g fill="#FFA500" id="img-0b78b7bc-73">
  <g transform="translate(312.86,10)">
    <circle cx="0" cy="0" r="5.71" class="primitive"/>
  </g>
</g>
<g transform="translate(215,50)">
  <path d="M-5,-0 L5,-0 5,0 -5,0  z" class="primitive"/>
</g>
<g stroke="#808080" stroke-width="1" id="img-0b78b7bc-74">
  <g transform="translate(160,50)">
    <path d="M-50,-50 L50,-50 50,50 -50,50  z" class="primitive"/>
  </g>
</g>
<g stroke-width="0.5" id="img-0b78b7bc-75">
  <g stroke="#808080" fill="#008015" id="img-0b78b7bc-76">
    <g transform="translate(202.86,10)">
      <path d="M-7.14,-10 L7.14,-10 7.14,10 -7.14,10  z" class="primitive"/>
    </g>
    <g stroke="#000000" id="img-0b78b7bc-77">
      <g transform="translate(202.86,10)">
        <g class="primitive">
          <text text-anchor="middle" dy="0.35em">→</text>
        </g>
      </g>
    </g>
  </g>
  <g stroke="#808080" fill="#FFFFFF" id="img-0b78b7bc-78">
    <g transform="translate(202.86,30)">
      <path d="M-7.14,-10 L7.14,-10 7.14,10 -7.14,10  z" class="primitive"/>
    </g>
    <g stroke="#000000" id="img-0b78b7bc-79">
      <g transform="translate(202.86,30)">
        <g class="primitive">
          <text text-anchor="middle" dy="0.35em">↑</text>
        </g>
      </g>
    </g>
  </g>
  <g stroke="#808080" fill="#FFFFFF" id="img-0b78b7bc-80">
    <g transform="translate(202.86,50)">
      <path d="M-7.14,-10 L7.14,-10 7.14,10 -7.14,10  z" class="primitive"/>
    </g>
    <g stroke="#000000" id="img-0b78b7bc-81">
      <g transform="translate(202.86,50)">
        <g class="primitive">
          <text text-anchor="middle" dy="0.35em">↑</text>
        </g>
      </g>
    </g>
  </g>
  <g stroke="#808080" fill="#FFFFFF" id="img-0b78b7bc-82">
    <g transform="translate(202.86,70)">
      <path d="M-7.14,-10 L7.14,-10 7.14,10 -7.14,10  z" class="primitive"/>
    </g>
    <g stroke="#000000" id="img-0b78b7bc-83">
      <g transform="translate(202.86,70)">
        <g class="primitive">
          <text text-anchor="middle" dy="0.35em">→</text>
        </g>
      </g>
    </g>
  </g>
  <g stroke="#808080" fill="#FFFFFF" id="img-0b78b7bc-84">
    <g transform="translate(202.86,90)">
      <path d="M-7.14,-10 L7.14,-10 7.14,10 -7.14,10  z" class="primitive"/>
    </g>
    <g stroke="#000000" id="img-0b78b7bc-85">
      <g transform="translate(202.86,90)">
        <g class="primitive">
          <text text-anchor="middle" dy="0.35em">↑</text>
        </g>
      </g>
    </g>
  </g>
  <g stroke="#808080" fill="#FFFFFF" id="img-0b78b7bc-86">
    <g transform="translate(188.57,10)">
      <path d="M-7.14,-10 L7.14,-10 7.14,10 -7.14,10  z" class="primitive"/>
    </g>
    <g stroke="#000000" id="img-0b78b7bc-87">
      <g transform="translate(188.57,10)">
        <g class="primitive">
          <text text-anchor="middle" dy="0.35em">→</text>
        </g>
      </g>
    </g>
  </g>
  <g stroke="#808080" fill="#FFFFFF" id="img-0b78b7bc-88">
    <g transform="translate(188.57,30)">
      <path d="M-7.14,-10 L7.14,-10 7.14,10 -7.14,10  z" class="primitive"/>
    </g>
    <g stroke="#000000" id="img-0b78b7bc-89">
      <g transform="translate(188.57,30)">
        <g class="primitive">
          <text text-anchor="middle" dy="0.35em">→</text>
        </g>
      </g>
    </g>
  </g>
  <g stroke="#808080" fill="#FFFFFF" id="img-0b78b7bc-90">
    <g transform="translate(188.57,50)">
      <path d="M-7.14,-10 L7.14,-10 7.14,10 -7.14,10  z" class="primitive"/>
    </g>
    <g stroke="#000000" id="img-0b78b7bc-91">
      <g transform="translate(188.57,50)">
        <g class="primitive">
          <text text-anchor="middle" dy="0.35em">→</text>
        </g>
      </g>
    </g>
  </g>
  <g stroke="#808080" fill="#FFFFFF" id="img-0b78b7bc-92">
    <g transform="translate(188.57,70)">
      <path d="M-7.14,-10 L7.14,-10 7.14,10 -7.14,10  z" class="primitive"/>
    </g>
    <g stroke="#000000" id="img-0b78b7bc-93">
      <g transform="translate(188.57,70)">
        <g class="primitive">
          <text text-anchor="middle" dy="0.35em">↑</text>
        </g>
      </g>
    </g>
  </g>
  <g stroke="#808080" fill="#FFFFFF" id="img-0b78b7bc-94">
    <g transform="translate(188.57,90)">
      <path d="M-7.14,-10 L7.14,-10 7.14,10 -7.14,10  z" class="primitive"/>
    </g>
    <g stroke="#000000" id="img-0b78b7bc-95">
      <g transform="translate(188.57,90)">
        <g class="primitive">
          <text text-anchor="middle" dy="0.35em">→</text>
        </g>
      </g>
    </g>
  </g>
  <g stroke="#808080" fill="#FF0000" id="img-0b78b7bc-96">
    <g transform="translate(174.29,10)">
      <path d="M-7.14,-10 L7.14,-10 7.14,10 -7.14,10  z" class="primitive"/>
    </g>
    <g stroke="#000000" id="img-0b78b7bc-97">
      <g transform="translate(174.29,10)">
        <g class="primitive">
          <text text-anchor="middle" dy="0.35em">↑</text>
        </g>
      </g>
    </g>
  </g>
  <g stroke="#808080" fill="#FFFFFF" id="img-0b78b7bc-98">
    <g transform="translate(174.29,30)">
      <path d="M-7.14,-10 L7.14,-10 7.14,10 -7.14,10  z" class="primitive"/>
    </g>
    <g stroke="#000000" id="img-0b78b7bc-99">
      <g transform="translate(174.29,30)">
        <g class="primitive">
          <text text-anchor="middle" dy="0.35em">→</text>
        </g>
      </g>
    </g>
  </g>
  <g stroke="#808080" fill="#FFFFFF" id="img-0b78b7bc-100">
    <g transform="translate(174.29,50)">
      <path d="M-7.14,-10 L7.14,-10 7.14,10 -7.14,10  z" class="primitive"/>
    </g>
    <g stroke="#000000" id="img-0b78b7bc-101">
      <g transform="translate(174.29,50)">
        <g class="primitive">
          <text text-anchor="middle" dy="0.35em">↑</text>
        </g>
      </g>
    </g>
  </g>
  <g stroke="#808080" fill="#FFFFFF" id="img-0b78b7bc-102">
    <g transform="translate(174.29,70)">
      <path d="M-7.14,-10 L7.14,-10 7.14,10 -7.14,10  z" class="primitive"/>
    </g>
    <g stroke="#000000" id="img-0b78b7bc-103">
      <g transform="translate(174.29,70)">
        <g class="primitive">
          <text text-anchor="middle" dy="0.35em">↑</text>
        </g>
      </g>
    </g>
  </g>
  <g stroke="#808080" fill="#FF0000" id="img-0b78b7bc-104">
    <g transform="translate(174.29,90)">
      <path d="M-7.14,-10 L7.14,-10 7.14,10 -7.14,10  z" class="primitive"/>
    </g>
    <g stroke="#000000" id="img-0b78b7bc-105">
      <g transform="translate(174.29,90)">
        <g class="primitive">
          <text text-anchor="middle" dy="0.35em">→</text>
        </g>
      </g>
    </g>
  </g>
  <g stroke="#808080" fill="#FF0000" id="img-0b78b7bc-106">
    <g transform="translate(160,10)">
      <path d="M-7.14,-10 L7.14,-10 7.14,10 -7.14,10  z" class="primitive"/>
    </g>
    <g stroke="#000000" id="img-0b78b7bc-107">
      <g transform="translate(160,10)">
        <g class="primitive">
          <text text-anchor="middle" dy="0.35em">→</text>
        </g>
      </g>
    </g>
  </g>
  <g stroke="#808080" fill="#FFFFFF" id="img-0b78b7bc-108">
    <g transform="translate(160,30)">
      <path d="M-7.14,-10 L7.14,-10 7.14,10 -7.14,10  z" class="primitive"/>
    </g>
    <g stroke="#000000" id="img-0b78b7bc-109">
      <g transform="translate(160,30)">
        <g class="primitive">
          <text text-anchor="middle" dy="0.35em">→</text>
        </g>
      </g>
    </g>
  </g>
  <g stroke="#808080" fill="#FFFFFF" id="img-0b78b7bc-110">
    <g transform="translate(160,50)">
      <path d="M-7.14,-10 L7.14,-10 7.14,10 -7.14,10  z" class="primitive"/>
    </g>
    <g stroke="#000000" id="img-0b78b7bc-111">
      <g transform="translate(160,50)">
        <g class="primitive">
          <text text-anchor="middle" dy="0.35em">→</text>
        </g>
      </g>
    </g>
  </g>
  <g stroke="#808080" fill="#FFFFFF" id="img-0b78b7bc-112">
    <g transform="translate(160,70)">
      <path d="M-7.14,-10 L7.14,-10 7.14,10 -7.14,10  z" class="primitive"/>
    </g>
    <g stroke="#000000" id="img-0b78b7bc-113">
      <g transform="translate(160,70)">
        <g class="primitive">
          <text text-anchor="middle" dy="0.35em">↑</text>
        </g>
      </g>
    </g>
  </g>
  <g stroke="#808080" fill="#FF0000" id="img-0b78b7bc-114">
    <g transform="translate(160,90)">
      <path d="M-7.14,-10 L7.14,-10 7.14,10 -7.14,10  z" class="primitive"/>
    </g>
    <g stroke="#000000" id="img-0b78b7bc-115">
      <g transform="translate(160,90)">
        <g class="primitive">
          <text text-anchor="middle" dy="0.35em">→</text>
        </g>
      </g>
    </g>
  </g>
  <g stroke="#808080" fill="#FF0000" id="img-0b78b7bc-116">
    <g transform="translate(145.71,10)">
      <path d="M-7.14,-10 L7.14,-10 7.14,10 -7.14,10  z" class="primitive"/>
    </g>
    <g stroke="#000000" id="img-0b78b7bc-117">
      <g transform="translate(145.71,10)">
        <g class="primitive">
          <text text-anchor="middle" dy="0.35em">→</text>
        </g>
      </g>
    </g>
  </g>
  <g stroke="#808080" fill="#FFFFFF" id="img-0b78b7bc-118">
    <g transform="translate(145.71,30)">
      <path d="M-7.14,-10 L7.14,-10 7.14,10 -7.14,10  z" class="primitive"/>
    </g>
    <g stroke="#000000" id="img-0b78b7bc-119">
      <g transform="translate(145.71,30)">
        <g class="primitive">
          <text text-anchor="middle" dy="0.35em">→</text>
        </g>
      </g>
    </g>
  </g>
  <g stroke="#808080" fill="#FFFFFF" id="img-0b78b7bc-120">
    <g transform="translate(145.71,50)">
      <path d="M-7.14,-10 L7.14,-10 7.14,10 -7.14,10  z" class="primitive"/>
    </g>
    <g stroke="#000000" id="img-0b78b7bc-121">
      <g transform="translate(145.71,50)">
        <g class="primitive">
          <text text-anchor="middle" dy="0.35em">→</text>
        </g>
      </g>
    </g>
  </g>
  <g stroke="#808080" fill="#FFFFFF" id="img-0b78b7bc-122">
    <g transform="translate(145.71,70)">
      <path d="M-7.14,-10 L7.14,-10 7.14,10 -7.14,10  z" class="primitive"/>
    </g>
    <g stroke="#000000" id="img-0b78b7bc-123">
      <g transform="translate(145.71,70)">
        <g class="primitive">
          <text text-anchor="middle" dy="0.35em">→</text>
        </g>
      </g>
    </g>
  </g>
  <g stroke="#808080" fill="#FF0000" id="img-0b78b7bc-124">
    <g transform="translate(145.71,90)">
      <path d="M-7.14,-10 L7.14,-10 7.14,10 -7.14,10  z" class="primitive"/>
    </g>
    <g stroke="#000000" id="img-0b78b7bc-125">
      <g transform="translate(145.71,90)">
        <g class="primitive">
          <text text-anchor="middle" dy="0.35em">↑</text>
        </g>
      </g>
    </g>
  </g>
  <g stroke="#808080" fill="#FFFFFF" id="img-0b78b7bc-126">
    <g transform="translate(131.43,10)">
      <path d="M-7.14,-10 L7.14,-10 7.14,10 -7.14,10  z" class="primitive"/>
    </g>
    <g stroke="#000000" id="img-0b78b7bc-127">
      <g transform="translate(131.43,10)">
        <g class="primitive">
          <text text-anchor="middle" dy="0.35em">↓</text>
        </g>
      </g>
    </g>
  </g>
  <g stroke="#808080" fill="#FFFFFF" id="img-0b78b7bc-128">
    <g transform="translate(131.43,30)">
      <path d="M-7.14,-10 L7.14,-10 7.14,10 -7.14,10  z" class="primitive"/>
    </g>
    <g stroke="#000000" id="img-0b78b7bc-129">
      <g transform="translate(131.43,30)">
        <g class="primitive">
          <text text-anchor="middle" dy="0.35em">→</text>
        </g>
      </g>
    </g>
  </g>
  <g stroke="#808080" fill="#FFFFFF" id="img-0b78b7bc-130">
    <g transform="translate(131.43,50)">
      <path d="M-7.14,-10 L7.14,-10 7.14,10 -7.14,10  z" class="primitive"/>
    </g>
    <g stroke="#000000" id="img-0b78b7bc-131">
      <g transform="translate(131.43,50)">
        <g class="primitive">
          <text text-anchor="middle" dy="0.35em">→</text>
        </g>
      </g>
    </g>
  </g>
  <g stroke="#808080" fill="#FFFFFF" id="img-0b78b7bc-132">
    <g transform="translate(131.43,70)">
      <path d="M-7.14,-10 L7.14,-10 7.14,10 -7.14,10  z" class="primitive"/>
    </g>
    <g stroke="#000000" id="img-0b78b7bc-133">
      <g transform="translate(131.43,70)">
        <g class="primitive">
          <text text-anchor="middle" dy="0.35em">↑</text>
        </g>
      </g>
    </g>
  </g>
  <g stroke="#808080" fill="#FFFFFF" id="img-0b78b7bc-134">
    <g transform="translate(131.43,90)">
      <path d="M-7.14,-10 L7.14,-10 7.14,10 -7.14,10  z" class="primitive"/>
    </g>
    <g stroke="#000000" id="img-0b78b7bc-135">
      <g transform="translate(131.43,90)">
        <g class="primitive">
          <text text-anchor="middle" dy="0.35em">↑</text>
        </g>
      </g>
    </g>
  </g>
  <g stroke="#808080" fill="#FFFFFF" id="img-0b78b7bc-136">
    <g transform="translate(117.14,10)">
      <path d="M-7.14,-10 L7.14,-10 7.14,10 -7.14,10  z" class="primitive"/>
    </g>
    <g stroke="#000000" id="img-0b78b7bc-137">
      <g transform="translate(117.14,10)">
        <g class="primitive">
          <text text-anchor="middle" dy="0.35em">↓</text>
        </g>
      </g>
    </g>
  </g>
  <g stroke="#808080" fill="#FFFFFF" id="img-0b78b7bc-138">
    <g transform="translate(117.14,30)">
      <path d="M-7.14,-10 L7.14,-10 7.14,10 -7.14,10  z" class="primitive"/>
    </g>
    <g stroke="#000000" id="img-0b78b7bc-139">
      <g transform="translate(117.14,30)">
        <g class="primitive">
          <text text-anchor="middle" dy="0.35em">→</text>
        </g>
      </g>
    </g>
  </g>
  <g stroke="#808080" fill="#FFFFFF" id="img-0b78b7bc-140">
    <g transform="translate(117.14,50)">
      <path d="M-7.14,-10 L7.14,-10 7.14,10 -7.14,10  z" class="primitive"/>
    </g>
    <g stroke="#000000" id="img-0b78b7bc-141">
      <g transform="translate(117.14,50)">
        <g class="primitive">
          <text text-anchor="middle" dy="0.35em">→</text>
        </g>
      </g>
    </g>
  </g>
  <g stroke="#808080" fill="#FFFFFF" id="img-0b78b7bc-142">
    <g transform="translate(117.14,70)">
      <path d="M-7.14,-10 L7.14,-10 7.14,10 -7.14,10  z" class="primitive"/>
    </g>
    <g stroke="#000000" id="img-0b78b7bc-143">
      <g transform="translate(117.14,70)">
        <g class="primitive">
          <text text-anchor="middle" dy="0.35em">↑</text>
        </g>
      </g>
    </g>
  </g>
  <g stroke="#808080" fill="#FFFFFF" id="img-0b78b7bc-144">
    <g transform="translate(117.14,90)">
      <path d="M-7.14,-10 L7.14,-10 7.14,10 -7.14,10  z" class="primitive"/>
    </g>
    <g stroke="#000000" id="img-0b78b7bc-145">
      <g transform="translate(117.14,90)">
        <g class="primitive">
          <text text-anchor="middle" dy="0.35em">↑</text>
        </g>
      </g>
    </g>
  </g>
</g>
<g fill="#FFA500" id="img-0b78b7bc-146">
  <g transform="translate(202.86,10)">
    <circle cx="0" cy="0" r="5.71" class="primitive"/>
  </g>
</g>
<g transform="translate(105,50)">
  <path d="M-5,-0 L5,-0 5,0 -5,0  z" class="primitive"/>
</g>
<g stroke="#808080" stroke-width="1" id="img-0b78b7bc-147">
  <g transform="translate(50,50)">
    <path d="M-50,-50 L50,-50 50,50 -50,50  z" class="primitive"/>
  </g>
</g>
<g stroke-width="0.5" id="img-0b78b7bc-148">
  <g stroke="#808080" fill="#008015" id="img-0b78b7bc-149">
    <g transform="translate(92.86,10)">
      <path d="M-7.14,-10 L7.14,-10 7.14,10 -7.14,10  z" class="primitive"/>
    </g>
    <g stroke="#000000" id="img-0b78b7bc-150">
      <g transform="translate(92.86,10)">
        <g class="primitive">
          <text text-anchor="middle" dy="0.35em">→</text>
        </g>
      </g>
    </g>
  </g>
  <g stroke="#808080" fill="#008015" id="img-0b78b7bc-151">
    <g transform="translate(92.86,30)">
      <path d="M-7.14,-10 L7.14,-10 7.14,10 -7.14,10  z" class="primitive"/>
    </g>
    <g stroke="#000000" id="img-0b78b7bc-152">
      <g transform="translate(92.86,30)">
        <g class="primitive">
          <text text-anchor="middle" dy="0.35em">↑</text>
        </g>
      </g>
    </g>
  </g>
  <g stroke="#808080" fill="#C1E0C6" id="img-0b78b7bc-153">
    <g transform="translate(92.86,50)">
      <path d="M-7.14,-10 L7.14,-10 7.14,10 -7.14,10  z" class="primitive"/>
    </g>
    <g stroke="#000000" id="img-0b78b7bc-154">
      <g transform="translate(92.86,50)">
        <g class="primitive">
          <text text-anchor="middle" dy="0.35em">↑</text>
        </g>
      </g>
    </g>
  </g>
  <g stroke="#808080" fill="#DAEDDD" id="img-0b78b7bc-155">
    <g transform="translate(92.86,70)">
      <path d="M-7.14,-10 L7.14,-10 7.14,10 -7.14,10  z" class="primitive"/>
    </g>
    <g stroke="#000000" id="img-0b78b7bc-156">
      <g transform="translate(92.86,70)">
        <g class="primitive">
          <text text-anchor="middle" dy="0.35em">↑</text>
        </g>
      </g>
    </g>
  </g>
  <g stroke="#808080" fill="#E6F3E8" id="img-0b78b7bc-157">
    <g transform="translate(92.86,90)">
      <path d="M-7.14,-10 L7.14,-10 7.14,10 -7.14,10  z" class="primitive"/>
    </g>
    <g stroke="#000000" id="img-0b78b7bc-158">
      <g transform="translate(92.86,90)">
        <g class="primitive">
          <text text-anchor="middle" dy="0.35em">↑</text>
        </g>
      </g>
    </g>
  </g>
  <g stroke="#808080" fill="#DAEDDD" id="img-0b78b7bc-159">
    <g transform="translate(78.57,10)">
      <path d="M-7.14,-10 L7.14,-10 7.14,10 -7.14,10  z" class="primitive"/>
    </g>
    <g stroke="#000000" id="img-0b78b7bc-160">
      <g transform="translate(78.57,10)">
        <g class="primitive">
          <text text-anchor="middle" dy="0.35em">→</text>
        </g>
      </g>
    </g>
  </g>
  <g stroke="#808080" fill="#008015" id="img-0b78b7bc-161">
    <g transform="translate(78.57,30)">
      <path d="M-7.14,-10 L7.14,-10 7.14,10 -7.14,10  z" class="primitive"/>
    </g>
    <g stroke="#000000" id="img-0b78b7bc-162">
      <g transform="translate(78.57,30)">
        <g class="primitive">
          <text text-anchor="middle" dy="0.35em">→</text>
        </g>
      </g>
    </g>
  </g>
  <g stroke="#808080" fill="#F3F9F4" id="img-0b78b7bc-163">
    <g transform="translate(78.57,50)">
      <path d="M-7.14,-10 L7.14,-10 7.14,10 -7.14,10  z" class="primitive"/>
    </g>
    <g stroke="#000000" id="img-0b78b7bc-164">
      <g transform="translate(78.57,50)">
        <g class="primitive">
          <text text-anchor="middle" dy="0.35em">→</text>
        </g>
      </g>
    </g>
  </g>
  <g stroke="#808080" fill="#FFFFFF" id="img-0b78b7bc-165">
    <g transform="translate(78.57,70)">
      <path d="M-7.14,-10 L7.14,-10 7.14,10 -7.14,10  z" class="primitive"/>
    </g>
    <g stroke="#000000" id="img-0b78b7bc-166">
      <g transform="translate(78.57,70)">
        <g class="primitive">
          <text text-anchor="middle" dy="0.35em">→</text>
        </g>
      </g>
    </g>
  </g>
  <g stroke="#808080" fill="#F3F9F4" id="img-0b78b7bc-167">
    <g transform="translate(78.57,90)">
      <path d="M-7.14,-10 L7.14,-10 7.14,10 -7.14,10  z" class="primitive"/>
    </g>
    <g stroke="#000000" id="img-0b78b7bc-168">
      <g transform="translate(78.57,90)">
        <g class="primitive">
          <text text-anchor="middle" dy="0.35em">→</text>
        </g>
      </g>
    </g>
  </g>
  <g stroke="#808080" fill="#FF0000" id="img-0b78b7bc-169">
    <g transform="translate(64.29,10)">
      <path d="M-7.14,-10 L7.14,-10 7.14,10 -7.14,10  z" class="primitive"/>
    </g>
    <g stroke="#000000" id="img-0b78b7bc-170">
      <g transform="translate(64.29,10)">
        <g class="primitive">
          <text text-anchor="middle" dy="0.35em">←</text>
        </g>
      </g>
    </g>
  </g>
  <g stroke="#808080" fill="#008015" id="img-0b78b7bc-171">
    <g transform="translate(64.29,30)">
      <path d="M-7.14,-10 L7.14,-10 7.14,10 -7.14,10  z" class="primitive"/>
    </g>
    <g stroke="#000000" id="img-0b78b7bc-172">
      <g transform="translate(64.29,30)">
        <g class="primitive">
          <text text-anchor="middle" dy="0.35em">→</text>
        </g>
      </g>
    </g>
  </g>
  <g stroke="#808080" fill="#42A151" id="img-0b78b7bc-173">
    <g transform="translate(64.29,50)">
      <path d="M-7.14,-10 L7.14,-10 7.14,10 -7.14,10  z" class="primitive"/>
    </g>
    <g stroke="#000000" id="img-0b78b7bc-174">
      <g transform="translate(64.29,50)">
        <g class="primitive">
          <text text-anchor="middle" dy="0.35em">↑</text>
        </g>
      </g>
    </g>
  </g>
  <g stroke="#808080" fill="#F3F9F4" id="img-0b78b7bc-175">
    <g transform="translate(64.29,70)">
      <path d="M-7.14,-10 L7.14,-10 7.14,10 -7.14,10  z" class="primitive"/>
    </g>
    <g stroke="#000000" id="img-0b78b7bc-176">
      <g transform="translate(64.29,70)">
        <g class="primitive">
          <text text-anchor="middle" dy="0.35em">↑</text>
        </g>
      </g>
    </g>
  </g>
  <g stroke="#808080" fill="#FF0000" id="img-0b78b7bc-177">
    <g transform="translate(64.29,90)">
      <path d="M-7.14,-10 L7.14,-10 7.14,10 -7.14,10  z" class="primitive"/>
    </g>
    <g stroke="#000000" id="img-0b78b7bc-178">
      <g transform="translate(64.29,90)">
        <g class="primitive">
          <text text-anchor="middle" dy="0.35em">↑</text>
        </g>
      </g>
    </g>
  </g>
  <g stroke="#808080" fill="#FF0000" id="img-0b78b7bc-179">
    <g transform="translate(50,10)">
      <path d="M-7.14,-10 L7.14,-10 7.14,10 -7.14,10  z" class="primitive"/>
    </g>
    <g stroke="#000000" id="img-0b78b7bc-180">
      <g transform="translate(50,10)">
        <g class="primitive">
          <text text-anchor="middle" dy="0.35em">←</text>
        </g>
      </g>
    </g>
  </g>
  <g stroke="#808080" fill="#77BB82" id="img-0b78b7bc-181">
    <g transform="translate(50,30)">
      <path d="M-7.14,-10 L7.14,-10 7.14,10 -7.14,10  z" class="primitive"/>
    </g>
    <g stroke="#000000" id="img-0b78b7bc-182">
      <g transform="translate(50,30)">
        <g class="primitive">
          <text text-anchor="middle" dy="0.35em">→</text>
        </g>
      </g>
    </g>
  </g>
  <g stroke="#808080" fill="#4FA75D" id="img-0b78b7bc-183">
    <g transform="translate(50,50)">
      <path d="M-7.14,-10 L7.14,-10 7.14,10 -7.14,10  z" class="primitive"/>
    </g>
    <g stroke="#000000" id="img-0b78b7bc-184">
      <g transform="translate(50,50)">
        <g class="primitive">
          <text text-anchor="middle" dy="0.35em">→</text>
        </g>
      </g>
    </g>
  </g>
  <g stroke="#808080" fill="#DAEDDD" id="img-0b78b7bc-185">
    <g transform="translate(50,70)">
      <path d="M-7.14,-10 L7.14,-10 7.14,10 -7.14,10  z" class="primitive"/>
    </g>
    <g stroke="#000000" id="img-0b78b7bc-186">
      <g transform="translate(50,70)">
        <g class="primitive">
          <text text-anchor="middle" dy="0.35em">↑</text>
        </g>
      </g>
    </g>
  </g>
  <g stroke="#808080" fill="#FF0000" id="img-0b78b7bc-187">
    <g transform="translate(50,90)">
      <path d="M-7.14,-10 L7.14,-10 7.14,10 -7.14,10  z" class="primitive"/>
    </g>
    <g stroke="#000000" id="img-0b78b7bc-188">
      <g transform="translate(50,90)">
        <g class="primitive">
          <text text-anchor="middle" dy="0.35em">→</text>
        </g>
      </g>
    </g>
  </g>
  <g stroke="#808080" fill="#FF0000" id="img-0b78b7bc-189">
    <g transform="translate(35.71,10)">
      <path d="M-7.14,-10 L7.14,-10 7.14,10 -7.14,10  z" class="primitive"/>
    </g>
    <g stroke="#000000" id="img-0b78b7bc-190">
      <g transform="translate(35.71,10)">
        <g class="primitive">
          <text text-anchor="middle" dy="0.35em">↓</text>
        </g>
      </g>
    </g>
  </g>
  <g stroke="#808080" fill="#90C899" id="img-0b78b7bc-191">
    <g transform="translate(35.71,30)">
      <path d="M-7.14,-10 L7.14,-10 7.14,10 -7.14,10  z" class="primitive"/>
    </g>
    <g stroke="#000000" id="img-0b78b7bc-192">
      <g transform="translate(35.71,30)">
        <g class="primitive">
          <text text-anchor="middle" dy="0.35em">→</text>
        </g>
      </g>
    </g>
  </g>
  <g stroke="#808080" fill="#84C28E" id="img-0b78b7bc-193">
    <g transform="translate(35.71,50)">
      <path d="M-7.14,-10 L7.14,-10 7.14,10 -7.14,10  z" class="primitive"/>
    </g>
    <g stroke="#000000" id="img-0b78b7bc-194">
      <g transform="translate(35.71,50)">
        <g class="primitive">
          <text text-anchor="middle" dy="0.35em">→</text>
        </g>
      </g>
    </g>
  </g>
  <g stroke="#808080" fill="#E6F3E8" id="img-0b78b7bc-195">
    <g transform="translate(35.71,70)">
      <path d="M-7.14,-10 L7.14,-10 7.14,10 -7.14,10  z" class="primitive"/>
    </g>
    <g stroke="#000000" id="img-0b78b7bc-196">
      <g transform="translate(35.71,70)">
        <g class="primitive">
          <text text-anchor="middle" dy="0.35em">→</text>
        </g>
      </g>
    </g>
  </g>
  <g stroke="#808080" fill="#FF0000" id="img-0b78b7bc-197">
    <g transform="translate(35.71,90)">
      <path d="M-7.14,-10 L7.14,-10 7.14,10 -7.14,10  z" class="primitive"/>
    </g>
    <g stroke="#000000" id="img-0b78b7bc-198">
      <g transform="translate(35.71,90)">
        <g class="primitive">
          <text text-anchor="middle" dy="0.35em">↑</text>
        </g>
      </g>
    </g>
  </g>
  <g stroke="#808080" fill="#DAEDDD" id="img-0b78b7bc-199">
    <g transform="translate(21.43,10)">
      <path d="M-7.14,-10 L7.14,-10 7.14,10 -7.14,10  z" class="primitive"/>
    </g>
    <g stroke="#000000" id="img-0b78b7bc-200">
      <g transform="translate(21.43,10)">
        <g class="primitive">
          <text text-anchor="middle" dy="0.35em">↓</text>
        </g>
      </g>
    </g>
  </g>
  <g stroke="#808080" fill="#A9D4B0" id="img-0b78b7bc-201">
    <g transform="translate(21.43,30)">
      <path d="M-7.14,-10 L7.14,-10 7.14,10 -7.14,10  z" class="primitive"/>
    </g>
    <g stroke="#000000" id="img-0b78b7bc-202">
      <g transform="translate(21.43,30)">
        <g class="primitive">
          <text text-anchor="middle" dy="0.35em">→</text>
        </g>
      </g>
    </g>
  </g>
  <g stroke="#808080" fill="#A9D4B0" id="img-0b78b7bc-203">
    <g transform="translate(21.43,50)">
      <path d="M-7.14,-10 L7.14,-10 7.14,10 -7.14,10  z" class="primitive"/>
    </g>
    <g stroke="#000000" id="img-0b78b7bc-204">
      <g transform="translate(21.43,50)">
        <g class="primitive">
          <text text-anchor="middle" dy="0.35em">→</text>
        </g>
      </g>
    </g>
  </g>
  <g stroke="#808080" fill="#DAEDDD" id="img-0b78b7bc-205">
    <g transform="translate(21.43,70)">
      <path d="M-7.14,-10 L7.14,-10 7.14,10 -7.14,10  z" class="primitive"/>
    </g>
    <g stroke="#000000" id="img-0b78b7bc-206">
      <g transform="translate(21.43,70)">
        <g class="primitive">
          <text text-anchor="middle" dy="0.35em">↑</text>
        </g>
      </g>
    </g>
  </g>
  <g stroke="#808080" fill="#DAEDDD" id="img-0b78b7bc-207">
    <g transform="translate(21.43,90)">
      <path d="M-7.14,-10 L7.14,-10 7.14,10 -7.14,10  z" class="primitive"/>
    </g>
    <g stroke="#000000" id="img-0b78b7bc-208">
      <g transform="translate(21.43,90)">
        <g class="primitive">
          <text text-anchor="middle" dy="0.35em">↑</text>
        </g>
      </g>
    </g>
  </g>
  <g stroke="#808080" fill="#E6F3E8" id="img-0b78b7bc-209">
    <g transform="translate(7.14,10)">
      <path d="M-7.14,-10 L7.14,-10 7.14,10 -7.14,10  z" class="primitive"/>
    </g>
    <g stroke="#000000" id="img-0b78b7bc-210">
      <g transform="translate(7.14,10)">
        <g class="primitive">
          <text text-anchor="middle" dy="0.35em">↓</text>
        </g>
      </g>
    </g>
  </g>
  <g stroke="#808080" fill="#DAEDDD" id="img-0b78b7bc-211">
    <g transform="translate(7.14,30)">
      <path d="M-7.14,-10 L7.14,-10 7.14,10 -7.14,10  z" class="primitive"/>
    </g>
    <g stroke="#000000" id="img-0b78b7bc-212">
      <g transform="translate(7.14,30)">
        <g class="primitive">
          <text text-anchor="middle" dy="0.35em">→</text>
        </g>
      </g>
    </g>
  </g>
  <g stroke="#808080" fill="#CEE6D2" id="img-0b78b7bc-213">
    <g transform="translate(7.14,50)">
      <path d="M-7.14,-10 L7.14,-10 7.14,10 -7.14,10  z" class="primitive"/>
    </g>
    <g stroke="#000000" id="img-0b78b7bc-214">
      <g transform="translate(7.14,50)">
        <g class="primitive">
          <text text-anchor="middle" dy="0.35em">→</text>
        </g>
      </g>
    </g>
  </g>
  <g stroke="#808080" fill="#E6F3E8" id="img-0b78b7bc-215">
    <g transform="translate(7.14,70)">
      <path d="M-7.14,-10 L7.14,-10 7.14,10 -7.14,10  z" class="primitive"/>
    </g>
    <g stroke="#000000" id="img-0b78b7bc-216">
      <g transform="translate(7.14,70)">
        <g class="primitive">
          <text text-anchor="middle" dy="0.35em">↑</text>
        </g>
      </g>
    </g>
  </g>
  <g stroke="#808080" fill="#E6F3E8" id="img-0b78b7bc-217">
    <g transform="translate(7.14,90)">
      <path d="M-7.14,-10 L7.14,-10 7.14,10 -7.14,10  z" class="primitive"/>
    </g>
    <g stroke="#000000" id="img-0b78b7bc-218">
      <g transform="translate(7.14,90)">
        <g class="primitive">
          <text text-anchor="middle" dy="0.35em">↑</text>
        </g>
      </g>
    </g>
  </g>
</g>
<g fill="#FFA500" id="img-0b78b7bc-219">
  <g transform="translate(92.86,10)">
    <circle cx="0" cy="0" r="5.71" class="primitive"/>
  </g>
</g>
</svg>
