<?xml version="1.0" encoding="UTF-8"?>
<svg xmlns="http://www.w3.org/2000/svg"
     xmlns:xlink="http://www.w3.org/1999/xlink"
     version="1.2"
     width="350mm" height="100mm" viewBox="0 0 350 100"
     stroke="none"
     fill="#000000"
     stroke-width="0.3"
     font-size="3.88"
>
<defs>
  <marker id="arrow" markerWidth="15" markerHeight="7" refX="5" refY="3.5" orient="auto" markerUnits="strokeWidth">
    <path d="M0,0 L15,3.5 L0,7 z" stroke="context-stroke" fill="context-stroke"/>
  </marker>
</defs>
<g stroke="#808080" stroke-width="1" id="img-b083b070-1">
  <g transform="translate(270,50)">
    <path d="M-50,-50 L50,-50 50,50 -50,50  z" class="primitive"/>
  </g>
</g>
<g stroke-width="0.5" id="img-b083b070-2">
  <g stroke="#808080" fill="#008015" id="img-b083b070-3">
    <g transform="translate(312.86,10)">
      <path d="M-7.14,-10 L7.14,-10 7.14,10 -7.14,10  z" class="primitive"/>
    </g>
    <g stroke="#000000" id="img-b083b070-4">
      <g transform="translate(312.86,10)">
        <g class="primitive">
          <text text-anchor="middle" dy="0.35em">→</text>
        </g>
      </g>
    </g>
  </g>
  <g stroke="#808080" fill="#FFFFFF" id="img-b083b070-5">
    <g transform="translate(312.86,30)">
      <path d="M-7.14,-10 L7.14,-10 7.14,10 -7.14,10  z" class="primitive"/>
    </g>
    <g stroke="#000000" id="img-b083b070-6">
      <g transform="translate(312.86,30)">
        <g class="primitive">
          <text text-anchor="middle" dy="0.35em">←</text>
        </g>
      </g>
    </g>
  </g>
  <g stroke="#808080" fill="#FFFFFF" id="img-b083b070-7">
    <g transform="translate(312.86,50)">
      <path d="M-7.14,-10 L7.14,-10 7.14,10 -7.14,10  z" class="primitive"/>
    </g>
    <g stroke="#000000" id="img-b083b070-8">
      <g transform="translate(312.86,50)">
        <g class="primitive">
          <text text-anchor="middle" dy="0.35em">←</text>
        </g>
      </g>
    </g>
  </g>
  <g stroke="#808080" fill="#FFFFFF" id="img-b083b070-9">
    <g transform="translate(312.86,70)">
      <path d="M-7.14,-10 L7.14,-10 7.14,10 -7.14,10  z" class="primitive"/>
    </g>
    <g stroke="#000000" id="img-b083b070-10">
      <g transform="translate(312.86,70)">
        <g class="primitive">
          <text text-anchor="middle" dy="0.35em">↓</text>
        </g>
      </g>
    </g>
  </g>
  <g stroke="#808080" fill="#FFFFFF" id="img-b083b070-11">
    <g transform="translate(312.86,90)">
      <path d="M-7.14,-10 L7.14,-10 7.14,10 -7.14,10  z" class="primitive"/>
    </g>
    <g stroke="#000000" id="img-b083b070-12">
      <g transform="translate(312.86,90)">
        <g class="primitive">
          <text text-anchor="middle" dy="0.35em">↑</text>
        </g>
      </g>
    </g>
  </g>
  <g stroke="#808080" fill="#FFFFFF" id="img-b083b070-13">
    <g transform="translate(298.57,10)">
      <path d="M-7.14,-10 L7.14,-10 7.14,10 -7.14,10  z" class="primitive"/>
    </g>
    <g stroke="#000000" id="img-b083b070-14">
      <g transform="translate(298.57,10)">
        <g class="primitive">
          <text text-anchor="middle" dy="0.35em">←</text>
        </g>
      </g>
    </g>
  </g>
  <g stroke="#808080" fill="#FFFFFF" id="img-b083b070-15">
    <g transform="translate(298.57,30)">
      <path d="M-7.14,-10 L7.14,-10 7.14,10 -7.14,10  z" class="primitive"/>
    </g>
    <g stroke="#000000" id="img-b083b070-16">
      <g transform="translate(298.57,30)">
        <g class="primitive">
          <text text-anchor="middle" dy="0.35em">←</text>
        </g>
      </g>
    </g>
  </g>
  <g stroke="#808080" fill="#FFFFFF" id="img-b083b070-17">
    <g transform="translate(298.57,50)">
      <path d="M-7.14,-10 L7.14,-10 7.14,10 -7.14,10  z" class="primitive"/>
    </g>
    <g stroke="#000000" id="img-b083b070-18">
      <g transform="translate(298.57,50)">
        <g class="primitive">
          <text text-anchor="middle" dy="0.35em">↓</text>
        </g>
      </g>
    </g>
  </g>
  <g stroke="#808080" fill="#FFFFFF" id="img-b083b070-19">
    <g transform="translate(298.57,70)">
      <path d="M-7.14,-10 L7.14,-10 7.14,10 -7.14,10  z" class="primitive"/>
    </g>
    <g stroke="#000000" id="img-b083b070-20">
      <g transform="translate(298.57,70)">
        <g class="primitive">
          <text text-anchor="middle" dy="0.35em">↓</text>
        </g>
      </g>
    </g>
  </g>
  <g stroke="#808080" fill="#FFFFFF" id="img-b083b070-21">
    <g transform="translate(298.57,90)">
      <path d="M-7.14,-10 L7.14,-10 7.14,10 -7.14,10  z" class="primitive"/>
    </g>
    <g stroke="#000000" id="img-b083b070-22">
      <g transform="translate(298.57,90)">
        <g class="primitive">
          <text text-anchor="middle" dy="0.35em">←</text>
        </g>
      </g>
    </g>
  </g>
  <g stroke="#808080" fill="#FF0000" id="img-b083b070-23">
    <g transform="translate(284.29,10)">
      <path d="M-7.14,-10 L7.14,-10 7.14,10 -7.14,10  z" class="primitive"/>
    </g>
    <g stroke="#000000" id="img-b083b070-24">
      <g transform="translate(284.29,10)">
        <g class="primitive">
          <text text-anchor="middle" dy="0.35em">↓</text>
        </g>
      </g>
    </g>
  </g>
  <g stroke="#808080" fill="#FF0000" id="img-b083b070-25">
    <g transform="translate(284.29,30)">
      <path d="M-7.14,-10 L7.14,-10 7.14,10 -7.14,10  z" class="primitive"/>
    </g>
    <g stroke="#000000" id="img-b083b070-26">
      <g transform="translate(284.29,30)">
        <g class="primitive">
          <text text-anchor="middle" dy="0.35em">→</text>
        </g>
      </g>
    </g>
  </g>
  <g stroke="#808080" fill="#FFFFFF" id="img-b083b070-27">
    <g transform="translate(284.29,50)">
      <path d="M-7.14,-10 L7.14,-10 7.14,10 -7.14,10  z" class="primitive"/>
    </g>
    <g stroke="#000000" id="img-b083b070-28">
      <g transform="translate(284.29,50)">
        <g class="primitive">
          <text text-anchor="middle" dy="0.35em">←</text>
        </g>
      </g>
    </g>
  </g>
  <g stroke="#808080" fill="#FFFFFF" id="img-b083b070-29">
    <g transform="translate(284.29,70)">
      <path d="M-7.14,-10 L7.14,-10 7.14,10 -7.14,10  z" class="primitive"/>
    </g>
    <g stroke="#000000" id="img-b083b070-30">
      <g transform="translate(284.29,70)">
        <g class="primitive">
          <text text-anchor="middle" dy="0.35em">←</text>
        </g>
      </g>
    </g>
  </g>
  <g stroke="#808080" fill="#FFFFFF" id="img-b083b070-31">
    <g transform="translate(284.29,90)">
      <path d="M-7.14,-10 L7.14,-10 7.14,10 -7.14,10  z" class="primitive"/>
    </g>
    <g stroke="#000000" id="img-b083b070-32">
      <g transform="translate(284.29,90)">
        <g class="primitive">
          <text text-anchor="middle" dy="0.35em">←</text>
        </g>
      </g>
    </g>
  </g>
  <g stroke="#808080" fill="#FF0000" id="img-b083b070-33">
    <g transform="translate(270,10)">
      <path d="M-7.14,-10 L7.14,-10 7.14,10 -7.14,10  z" class="primitive"/>
    </g>
    <g stroke="#000000" id="img-b083b070-34">
      <g transform="translate(270,10)">
        <g class="primitive">
          <text text-anchor="middle" dy="0.35em">←</text>
        </g>
      </g>
    </g>
  </g>
  <g stroke="#808080" fill="#FF0000" id="img-b083b070-35">
    <g transform="translate(270,30)">
      <path d="M-7.14,-10 L7.14,-10 7.14,10 -7.14,10  z" class="primitive"/>
    </g>
    <g stroke="#000000" id="img-b083b070-36">
      <g transform="translate(270,30)">
        <g class="primitive">
          <text text-anchor="middle" dy="0.35em">←</text>
        </g>
      </g>
    </g>
  </g>
  <g stroke="#808080" fill="#FFFFFF" id="img-b083b070-37">
    <g transform="translate(270,50)">
      <path d="M-7.14,-10 L7.14,-10 7.14,10 -7.14,10  z" class="primitive"/>
    </g>
    <g stroke="#000000" id="img-b083b070-38">
      <g transform="translate(270,50)">
        <g class="primitive">
          <text text-anchor="middle" dy="0.35em">←</text>
        </g>
      </g>
    </g>
  </g>
  <g stroke="#808080" fill="#FFFFFF" id="img-b083b070-39">
    <g transform="translate(270,70)">
      <path d="M-7.14,-10 L7.14,-10 7.14,10 -7.14,10  z" class="primitive"/>
    </g>
    <g stroke="#000000" id="img-b083b070-40">
      <g transform="translate(270,70)">
        <g class="primitive">
          <text text-anchor="middle" dy="0.35em">↑</text>
        </g>
      </g>
    </g>
  </g>
  <g stroke="#808080" fill="#FFFFFF" id="img-b083b070-41">
    <g transform="translate(270,90)">
      <path d="M-7.14,-10 L7.14,-10 7.14,10 -7.14,10  z" class="primitive"/>
    </g>
    <g stroke="#000000" id="img-b083b070-42">
      <g transform="translate(270,90)">
        <g class="primitive">
          <text text-anchor="middle" dy="0.35em">←</text>
        </g>
      </g>
    </g>
  </g>
  <g stroke="#808080" fill="#FF0000" id="img-b083b070-43">
    <g transform="translate(255.71,10)">
      <path d="M-7.14,-10 L7.14,-10 7.14,10 -7.14,10  z" class="primitive"/>
    </g>
    <g stroke="#000000" id="img-b083b070-44">
      <g transform="translate(255.71,10)">
        <g class="primitive">
          <text text-anchor="middle" dy="0.35em">←</text>
        </g>
      </g>
    </g>
  </g>
  <g stroke="#808080" fill="#FF0000" id="img-b083b070-45">
    <g transform="translate(255.71,30)">
      <path d="M-7.14,-10 L7.14,-10 7.14,10 -7.14,10  z" class="primitive"/>
    </g>
    <g stroke="#000000" id="img-b083b070-46">
      <g transform="translate(255.71,30)">
        <g class="primitive">
          <text text-anchor="middle" dy="0.35em">→</text>
        </g>
      </g>
    </g>
  </g>
  <g stroke="#808080" fill="#FFFFFF" id="img-b083b070-47">
    <g transform="translate(255.71,50)">
      <path d="M-7.14,-10 L7.14,-10 7.14,10 -7.14,10  z" class="primitive"/>
    </g>
    <g stroke="#000000" id="img-b083b070-48">
      <g transform="translate(255.71,50)">
        <g class="primitive">
          <text text-anchor="middle" dy="0.35em">←</text>
        </g>
      </g>
    </g>
  </g>
  <g stroke="#808080" fill="#FFFFFF" id="img-b083b070-49">
    <g transform="translate(255.71,70)">
      <path d="M-7.14,-10 L7.14,-10 7.14,10 -7.14,10  z" class="primitive"/>
    </g>
    <g stroke="#000000" id="img-b083b070-50">
      <g transform="translate(255.71,70)">
        <g class="primitive">
          <text text-anchor="middle" dy="0.35em">←</text>
        </g>
      </g>
    </g>
  </g>
  <g stroke="#808080" fill="#FFFFFF" id="img-b083b070-51">
    <g transform="translate(255.71,90)">
      <path d="M-7.14,-10 L7.14,-10 7.14,10 -7.14,10  z" class="primitive"/>
    </g>
    <g stroke="#000000" id="img-b083b070-52">
      <g transform="translate(255.71,90)">
        <g class="primitive">
          <text text-anchor="middle" dy="0.35em">↓</text>
        </g>
      </g>
    </g>
  </g>
  <g stroke="#808080" fill="#FFFFFF" id="img-b083b070-53">
    <g transform="translate(241.43,10)">
      <path d="M-7.14,-10 L7.14,-10 7.14,10 -7.14,10  z" class="primitive"/>
    </g>
    <g stroke="#000000" id="img-b083b070-54">
      <g transform="translate(241.43,10)">
        <g class="primitive">
          <text text-anchor="middle" dy="0.35em">←</text>
        </g>
      </g>
    </g>
  </g>
  <g stroke="#808080" fill="#FFFFFF" id="img-b083b070-55">
    <g transform="translate(241.43,30)">
      <path d="M-7.14,-10 L7.14,-10 7.14,10 -7.14,10  z" class="primitive"/>
    </g>
    <g stroke="#000000" id="img-b083b070-56">
      <g transform="translate(241.43,30)">
        <g class="primitive">
          <text text-anchor="middle" dy="0.35em">←</text>
        </g>
      </g>
    </g>
  </g>
  <g stroke="#808080" fill="#FFFFFF" id="img-b083b070-57">
    <g transform="translate(241.43,50)">
      <path d="M-7.14,-10 L7.14,-10 7.14,10 -7.14,10  z" class="primitive"/>
    </g>
    <g stroke="#000000" id="img-b083b070-58">
      <g transform="translate(241.43,50)">
        <g class="primitive">
          <text text-anchor="middle" dy="0.35em">←</text>
        </g>
      </g>
    </g>
  </g>
  <g stroke="#808080" fill="#FFFFFF" id="img-b083b070-59">
    <g transform="translate(241.43,70)">
      <path d="M-7.14,-10 L7.14,-10 7.14,10 -7.14,10  z" class="primitive"/>
    </g>
    <g stroke="#000000" id="img-b083b070-60">
      <g transform="translate(241.43,70)">
        <g class="primitive">
          <text text-anchor="middle" dy="0.35em">↑</text>
        </g>
      </g>
    </g>
  </g>
  <g stroke="#808080" fill="#FFFFFF" id="img-b083b070-61">
    <g transform="translate(241.43,90)">
      <path d="M-7.14,-10 L7.14,-10 7.14,10 -7.14,10  z" class="primitive"/>
    </g>
    <g stroke="#000000" id="img-b083b070-62">
      <g transform="translate(241.43,90)">
        <g class="primitive">
          <text text-anchor="middle" dy="0.35em">↓</text>
        </g>
      </g>
    </g>
  </g>
  <g stroke="#808080" fill="#FFFFFF" id="img-b083b070-63">
    <g transform="translate(227.14,10)">
      <path d="M-7.14,-10 L7.14,-10 7.14,10 -7.14,10  z" class="primitive"/>
    </g>
    <g stroke="#000000" id="img-b083b070-64">
      <g transform="translate(227.14,10)">
        <g class="primitive">
          <text text-anchor="middle" dy="0.35em">↓</text>
        </g>
      </g>
    </g>
  </g>
  <g stroke="#808080" fill="#FFFFFF" id="img-b083b070-65">
    <g transform="translate(227.14,30)">
      <path d="M-7.14,-10 L7.14,-10 7.14,10 -7.14,10  z" class="primitive"/>
    </g>
    <g stroke="#000000" id="img-b083b070-66">
      <g transform="translate(227.14,30)">
        <g class="primitive">
          <text text-anchor="middle" dy="0.35em">↓</text>
        </g>
      </g>
    </g>
  </g>
  <g stroke="#808080" fill="#FFFFFF" id="img-b083b070-67">
    <g transform="translate(227.14,50)">
      <path d="M-7.14,-10 L7.14,-10 7.14,10 -7.14,10  z" class="primitive"/>
    </g>
    <g stroke="#000000" id="img-b083b070-68">
      <g transform="translate(227.14,50)">
        <g class="primitive">
          <text text-anchor="middle" dy="0.35em">←</text>
        </g>
      </g>
    </g>
  </g>
  <g stroke="#808080" fill="#FFFFFF" id="img-b083b070-69">
    <g transform="translate(227.14,70)">
      <path d="M-7.14,-10 L7.14,-10 7.14,10 -7.14,10  z" class="primitive"/>
    </g>
    <g stroke="#000000" id="img-b083b070-70">
      <g transform="translate(227.14,70)">
        <g class="primitive">
          <text text-anchor="middle" dy="0.35em">←</text>
        </g>
      </g>
    </g>
  </g>
  <g stroke="#808080" fill="#FFFFFF" id="img-b083b070-71">
    <g transform="translate(227.14,90)">
      <path d="M-7.14,-10 L7.14,-10 7.14,10 -7.14,10  z" class="primitive"/>
    </g>
    <g stroke="#000000" id="img-b083b070-72">
      <g transform="translate(227.14,90)">
        <g class="primitive">
          <text text-anchor="middle" dy="0.35em">↑</text>
        </g>
      </g>
    </g>
  </g>
</g>
<g fill="#FFA500" id="img-b083b070-73">
  <g transform="translate(312.86,10)">
    <circle cx="0" cy="0" r="5.71" class="primitive"/>
  </g>
</g>
<g transform="translate(215,50)">
  <path d="M-5,-0 L5,-0 5,0 -5,0  z" class="primitive"/>
</g>
<g stroke="#808080" stroke-width="1" id="img-b083b070-74">
  <g transform="translate(160,50)">
    <path d="M-50,-50 L50,-50 50,50 -50,50  z" class="primitive"/>
  </g>
</g>
<g stroke-width="0.5" id="img-b083b070-75">
  <g stroke="#808080" fill="#008015" id="img-b083b070-76">
    <g transform="translate(202.86,10)">
      <path d="M-7.14,-10 L7.14,-10 7.14,10 -7.14,10  z" class="primitive"/>
    </g>
    <g stroke="#000000" id="img-b083b070-77">
      <g transform="translate(202.86,10)">
        <g class="primitive">
          <text text-anchor="middle" dy="0.35em">→</text>
        </g>
      </g>
    </g>
  </g>
  <g stroke="#808080" fill="#FFFFFF" id="img-b083b070-78">
    <g transform="translate(202.86,30)">
      <path d="M-7.14,-10 L7.14,-10 7.14,10 -7.14,10  z" class="primitive"/>
    </g>
    <g stroke="#000000" id="img-b083b070-79">
      <g transform="translate(202.86,30)">
        <g class="primitive">
          <text text-anchor="middle" dy="0.35em">↑</text>
        </g>
      </g>
    </g>
  </g>
  <g stroke="#808080" fill="#FFFFFF" id="img-b083b070-80">
    <g transform="translate(202.86,50)">
      <path d="M-7.14,-10 L7.14,-10 7.14,10 -7.14,10  z" class="primitive"/>
    </g>
    <g stroke="#000000" id="img-b083b070-81">
      <g transform="translate(202.86,50)">
        <g class="primitive">
          <text text-anchor="middle" dy="0.35em">↑</text>
        </g>
      </g>
    </g>
  </g>
  <g stroke="#808080" fill="#FFFFFF" id="img-b083b070-82">
    <g transform="translate(202.86,70)">
      <path d="M-7.14,-10 L7.14,-10 7.14,10 -7.14,10  z" class="primitive"/>
    </g>
    <g stroke="#000000" id="img-b083b070-83">
      <g transform="translate(202.86,70)">
        <g class="primitive">
          <text text-anchor="middle" dy="0.35em">↑</text>
        </g>
      </g>
    </g>
  </g>
  <g stroke="#808080" fill="#FFFFFF" id="img-b083b070-84">
    <g transform="translate(202.86,90)">
      <path d="M-7.14,-10 L7.14,-10 7.14,10 -7.14,10  z" class="primitive"/>
    </g>
    <g stroke="#000000" id="img-b083b070-85">
      <g transform="translate(202.86,90)">
        <g class="primitive">
          <text text-anchor="middle" dy="0.35em">↑</text>
        </g>
      </g>
    </g>
  </g>
  <g stroke="#808080" fill="#FFFFFF" id="img-b083b070-86">
    <g transform="translate(188.57,10)">
      <path d="M-7.14,-10 L7.14,-10 7.14,10 -7.14,10  z" class="primitive"/>
    </g>
    <g stroke="#000000" id="img-b083b070-87">
      <g transform="translate(188.57,10)">
        <g class="primitive">
          <text text-anchor="middle" dy="0.35em">→</text>
        </g>
      </g>
    </g>
  </g>
  <g stroke="#808080" fill="#FFFFFF" id="img-b083b070-88">
    <g transform="translate(188.57,30)">
      <path d="M-7.14,-10 L7.14,-10 7.14,10 -7.14,10  z" class="primitive"/>
    </g>
    <g stroke="#000000" id="img-b083b070-89">
      <g transform="translate(188.57,30)">
        <g class="primitive">
          <text text-anchor="middle" dy="0.35em">→</text>
        </g>
      </g>
    </g>
  </g>
  <g stroke="#808080" fill="#FFFFFF" id="img-b083b070-90">
    <g transform="translate(188.57,50)">
      <path d="M-7.14,-10 L7.14,-10 7.14,10 -7.14,10  z" class="primitive"/>
    </g>
    <g stroke="#000000" id="img-b083b070-91">
      <g transform="translate(188.57,50)">
        <g class="primitive">
          <text text-anchor="middle" dy="0.35em">→</text>
        </g>
      </g>
    </g>
  </g>
  <g stroke="#808080" fill="#FFFFFF" id="img-b083b070-92">
    <g transform="translate(188.57,70)">
      <path d="M-7.14,-10 L7.14,-10 7.14,10 -7.14,10  z" class="primitive"/>
    </g>
    <g stroke="#000000" id="img-b083b070-93">
      <g transform="translate(188.57,70)">
        <g class="primitive">
          <text text-anchor="middle" dy="0.35em">→</text>
        </g>
      </g>
    </g>
  </g>
  <g stroke="#808080" fill="#FFFFFF" id="img-b083b070-94">
    <g transform="translate(188.57,90)">
      <path d="M-7.14,-10 L7.14,-10 7.14,10 -7.14,10  z" class="primitive"/>
    </g>
    <g stroke="#000000" id="img-b083b070-95">
      <g transform="translate(188.57,90)">
        <g class="primitive">
          <text text-anchor="middle" dy="0.35em">→</text>
        </g>
      </g>
    </g>
  </g>
  <g stroke="#808080" fill="#FF0000" id="img-b083b070-96">
    <g transform="translate(174.29,10)">
      <path d="M-7.14,-10 L7.14,-10 7.14,10 -7.14,10  z" class="primitive"/>
    </g>
    <g stroke="#000000" id="img-b083b070-97">
      <g transform="translate(174.29,10)">
        <g class="primitive">
          <text text-anchor="middle" dy="0.35em">↓</text>
        </g>
      </g>
    </g>
  </g>
  <g stroke="#808080" fill="#FF0000" id="img-b083b070-98">
    <g transform="translate(174.29,30)">
      <path d="M-7.14,-10 L7.14,-10 7.14,10 -7.14,10  z" class="primitive"/>
    </g>
    <g stroke="#000000" id="img-b083b070-99">
      <g transform="translate(174.29,30)">
        <g class="primitive">
          <text text-anchor="middle" dy="0.35em">→</text>
        </g>
      </g>
    </g>
  </g>
  <g stroke="#808080" fill="#FFFFFF" id="img-b083b070-100">
    <g transform="translate(174.29,50)">
      <path d="M-7.14,-10 L7.14,-10 7.14,10 -7.14,10  z" class="primitive"/>
    </g>
    <g stroke="#000000" id="img-b083b070-101">
      <g transform="translate(174.29,50)">
        <g class="primitive">
          <text text-anchor="middle" dy="0.35em">↑</text>
        </g>
      </g>
    </g>
  </g>
  <g stroke="#808080" fill="#FFFFFF" id="img-b083b070-102">
    <g transform="translate(174.29,70)">
      <path d="M-7.14,-10 L7.14,-10 7.14,10 -7.14,10  z" class="primitive"/>
    </g>
    <g stroke="#000000" id="img-b083b070-103">
      <g transform="translate(174.29,70)">
        <g class="primitive">
          <text text-anchor="middle" dy="0.35em">↑</text>
        </g>
      </g>
    </g>
  </g>
  <g stroke="#808080" fill="#FFFFFF" id="img-b083b070-104">
    <g transform="translate(174.29,90)">
      <path d="M-7.14,-10 L7.14,-10 7.14,10 -7.14,10  z" class="primitive"/>
    </g>
    <g stroke="#000000" id="img-b083b070-105">
      <g transform="translate(174.29,90)">
        <g class="primitive">
          <text text-anchor="middle" dy="0.35em">→</text>
        </g>
      </g>
    </g>
  </g>
  <g stroke="#808080" fill="#FF0000" id="img-b083b070-106">
    <g transform="translate(160,10)">
      <path d="M-7.14,-10 L7.14,-10 7.14,10 -7.14,10  z" class="primitive"/>
    </g>
    <g stroke="#000000" id="img-b083b070-107">
      <g transform="translate(160,10)">
        <g class="primitive">
          <text text-anchor="middle" dy="0.35em">→</text>
        </g>
      </g>
    </g>
  </g>
  <g stroke="#808080" fill="#FF0000" id="img-b083b070-108">
    <g transform="translate(160,30)">
      <path d="M-7.14,-10 L7.14,-10 7.14,10 -7.14,10  z" class="primitive"/>
    </g>
    <g stroke="#000000" id="img-b083b070-109">
      <g transform="translate(160,30)">
        <g class="primitive">
          <text text-anchor="middle" dy="0.35em">→</text>
        </g>
      </g>
    </g>
  </g>
  <g stroke="#808080" fill="#FFFFFF" id="img-b083b070-110">
    <g transform="translate(160,50)">
      <path d="M-7.14,-10 L7.14,-10 7.14,10 -7.14,10  z" class="primitive"/>
    </g>
    <g stroke="#000000" id="img-b083b070-111">
      <g transform="translate(160,50)">
        <g class="primitive">
          <text text-anchor="middle" dy="0.35em">→</text>
        </g>
      </g>
    </g>
  </g>
  <g stroke="#808080" fill="#FFFFFF" id="img-b083b070-112">
    <g transform="translate(160,70)">
      <path d="M-7.14,-10 L7.14,-10 7.14,10 -7.14,10  z" class="primitive"/>
    </g>
    <g stroke="#000000" id="img-b083b070-113">
      <g transform="translate(160,70)">
        <g class="primitive">
          <text text-anchor="middle" dy="0.35em">→</text>
        </g>
      </g>
    </g>
  </g>
  <g stroke="#808080" fill="#FFFFFF" id="img-b083b070-114">
    <g transform="translate(160,90)">
      <path d="M-7.14,-10 L7.14,-10 7.14,10 -7.14,10  z" class="primitive"/>
    </g>
    <g stroke="#000000" id="img-b083b070-115">
      <g transform="translate(160,90)">
        <g class="primitive">
          <text text-anchor="middle" dy="0.35em">↓</text>
        </g>
      </g>
    </g>
  </g>
  <g stroke="#808080" fill="#FF0000" id="img-b083b070-116">
    <g transform="translate(145.71,10)">
      <path d="M-7.14,-10 L7.14,-10 7.14,10 -7.14,10  z" class="primitive"/>
    </g>
    <g stroke="#000000" id="img-b083b070-117">
      <g transform="translate(145.71,10)">
        <g class="primitive">
          <text text-anchor="middle" dy="0.35em">→</text>
        </g>
      </g>
    </g>
  </g>
  <g stroke="#808080" fill="#FF0000" id="img-b083b070-118">
    <g transform="translate(145.71,30)">
      <path d="M-7.14,-10 L7.14,-10 7.14,10 -7.14,10  z" class="primitive"/>
    </g>
    <g stroke="#000000" id="img-b083b070-119">
      <g transform="translate(145.71,30)">
        <g class="primitive">
          <text text-anchor="middle" dy="0.35em">→</text>
        </g>
      </g>
    </g>
  </g>
  <g stroke="#808080" fill="#FFFFFF" id="img-b083b070-120">
    <g transform="translate(145.71,50)">
      <path d="M-7.14,-10 L7.14,-10 7.14,10 -7.14,10  z" class="primitive"/>
    </g>
    <g stroke="#000000" id="img-b083b070-121">
      <g transform="translate(145.71,50)">
        <g class="primitive">
          <text text-anchor="middle" dy="0.35em">→</text>
        </g>
      </g>
    </g>
  </g>
  <g stroke="#808080" fill="#FFFFFF" id="img-b083b070-122">
    <g transform="translate(145.71,70)">
      <path d="M-7.14,-10 L7.14,-10 7.14,10 -7.14,10  z" class="primitive"/>
    </g>
    <g stroke="#000000" id="img-b083b070-123">
      <g transform="translate(145.71,70)">
        <g class="primitive">
          <text text-anchor="middle" dy="0.35em">→</text>
        </g>
      </g>
    </g>
  </g>
  <g stroke="#808080" fill="#FFFFFF" id="img-b083b070-124">
    <g transform="translate(145.71,90)">
      <path d="M-7.14,-10 L7.14,-10 7.14,10 -7.14,10  z" class="primitive"/>
    </g>
    <g stroke="#000000" id="img-b083b070-125">
      <g transform="translate(145.71,90)">
        <g class="primitive">
          <text text-anchor="middle" dy="0.35em">↓</text>
        </g>
      </g>
    </g>
  </g>
  <g stroke="#808080" fill="#FFFFFF" id="img-b083b070-126">
    <g transform="translate(131.43,10)">
      <path d="M-7.14,-10 L7.14,-10 7.14,10 -7.14,10  z" class="primitive"/>
    </g>
    <g stroke="#000000" id="img-b083b070-127">
      <g transform="translate(131.43,10)">
        <g class="primitive">
          <text text-anchor="middle" dy="0.35em">↓</text>
        </g>
      </g>
    </g>
  </g>
  <g stroke="#808080" fill="#FFFFFF" id="img-b083b070-128">
    <g transform="translate(131.43,30)">
      <path d="M-7.14,-10 L7.14,-10 7.14,10 -7.14,10  z" class="primitive"/>
    </g>
    <g stroke="#000000" id="img-b083b070-129">
      <g transform="translate(131.43,30)">
        <g class="primitive">
          <text text-anchor="middle" dy="0.35em">→</text>
        </g>
      </g>
    </g>
  </g>
  <g stroke="#808080" fill="#FFFFFF" id="img-b083b070-130">
    <g transform="translate(131.43,50)">
      <path d="M-7.14,-10 L7.14,-10 7.14,10 -7.14,10  z" class="primitive"/>
    </g>
    <g stroke="#000000" id="img-b083b070-131">
      <g transform="translate(131.43,50)">
        <g class="primitive">
          <text text-anchor="middle" dy="0.35em">→</text>
        </g>
      </g>
    </g>
  </g>
  <g stroke="#808080" fill="#FFFFFF" id="img-b083b070-132">
    <g transform="translate(131.43,70)">
      <path d="M-7.14,-10 L7.14,-10 7.14,10 -7.14,10  z" class="primitive"/>
    </g>
    <g stroke="#000000" id="img-b083b070-133">
      <g transform="translate(131.43,70)">
        <g class="primitive">
          <text text-anchor="middle" dy="0.35em">↑</text>
        </g>
      </g>
    </g>
  </g>
  <g stroke="#808080" fill="#FFFFFF" id="img-b083b070-134">
    <g transform="translate(131.43,90)">
      <path d="M-7.14,-10 L7.14,-10 7.14,10 -7.14,10  z" class="primitive"/>
    </g>
    <g stroke="#000000" id="img-b083b070-135">
      <g transform="translate(131.43,90)">
        <g class="primitive">
          <text text-anchor="middle" dy="0.35em">↑</text>
        </g>
      </g>
    </g>
  </g>
  <g stroke="#808080" fill="#FFFFFF" id="img-b083b070-136">
    <g transform="translate(117.14,10)">
      <path d="M-7.14,-10 L7.14,-10 7.14,10 -7.14,10  z" class="primitive"/>
    </g>
    <g stroke="#000000" id="img-b083b070-137">
      <g transform="translate(117.14,10)">
        <g class="primitive">
          <text text-anchor="middle" dy="0.35em">↓</text>
        </g>
      </g>
    </g>
  </g>
  <g stroke="#808080" fill="#FFFFFF" id="img-b083b070-138">
    <g transform="translate(117.14,30)">
      <path d="M-7.14,-10 L7.14,-10 7.14,10 -7.14,10  z" class="primitive"/>
    </g>
    <g stroke="#000000" id="img-b083b070-139">
      <g transform="translate(117.14,30)">
        <g class="primitive">
          <text text-anchor="middle" dy="0.35em">→</text>
        </g>
      </g>
    </g>
  </g>
  <g stroke="#808080" fill="#FFFFFF" id="img-b083b070-140">
    <g transform="translate(117.14,50)">
      <path d="M-7.14,-10 L7.14,-10 7.14,10 -7.14,10  z" class="primitive"/>
    </g>
    <g stroke="#000000" id="img-b083b070-141">
      <g transform="translate(117.14,50)">
        <g class="primitive">
          <text text-anchor="middle" dy="0.35em">→</text>
        </g>
      </g>
    </g>
  </g>
  <g stroke="#808080" fill="#FFFFFF" id="img-b083b070-142">
    <g transform="translate(117.14,70)">
      <path d="M-7.14,-10 L7.14,-10 7.14,10 -7.14,10  z" class="primitive"/>
    </g>
    <g stroke="#000000" id="img-b083b070-143">
      <g transform="translate(117.14,70)">
        <g class="primitive">
          <text text-anchor="middle" dy="0.35em">→</text>
        </g>
      </g>
    </g>
  </g>
  <g stroke="#808080" fill="#FFFFFF" id="img-b083b070-144">
    <g transform="translate(117.14,90)">
      <path d="M-7.14,-10 L7.14,-10 7.14,10 -7.14,10  z" class="primitive"/>
    </g>
    <g stroke="#000000" id="img-b083b070-145">
      <g transform="translate(117.14,90)">
        <g class="primitive">
          <text text-anchor="middle" dy="0.35em">→</text>
        </g>
      </g>
    </g>
  </g>
</g>
<g fill="#FFA500" id="img-b083b070-146">
  <g transform="translate(202.86,10)">
    <circle cx="0" cy="0" r="5.71" class="primitive"/>
  </g>
</g>
<g transform="translate(105,50)">
  <path d="M-5,-0 L5,-0 5,0 -5,0  z" class="primitive"/>
</g>
<g stroke="#808080" stroke-width="1" id="img-b083b070-147">
  <g transform="translate(50,50)">
    <path d="M-50,-50 L50,-50 50,50 -50,50  z" class="primitive"/>
  </g>
</g>
<g stroke-width="0.5" id="img-b083b070-148">
  <g stroke="#808080" fill="#008015" id="img-b083b070-149">
    <g transform="translate(92.86,10)">
      <path d="M-7.14,-10 L7.14,-10 7.14,10 -7.14,10  z" class="primitive"/>
    </g>
    <g stroke="#000000" id="img-b083b070-150">
      <g transform="translate(92.86,10)">
        <g class="primitive">
          <text text-anchor="middle" dy="0.35em">→</text>
        </g>
      </g>
    </g>
  </g>
  <g stroke="#808080" fill="#FFFFFF" id="img-b083b070-151">
    <g transform="translate(92.86,30)">
      <path d="M-7.14,-10 L7.14,-10 7.14,10 -7.14,10  z" class="primitive"/>
    </g>
    <g stroke="#000000" id="img-b083b070-152">
      <g transform="translate(92.86,30)">
        <g class="primitive">
          <text text-anchor="middle" dy="0.35em">↑</text>
        </g>
      </g>
    </g>
  </g>
  <g stroke="#808080" fill="#FFFFFF" id="img-b083b070-153">
    <g transform="translate(92.86,50)">
      <path d="M-7.14,-10 L7.14,-10 7.14,10 -7.14,10  z" class="primitive"/>
    </g>
    <g stroke="#000000" id="img-b083b070-154">
      <g transform="translate(92.86,50)">
        <g class="primitive">
          <text text-anchor="middle" dy="0.35em">↑</text>
        </g>
      </g>
    </g>
  </g>
  <g stroke="#808080" fill="#FFFFFF" id="img-b083b070-155">
    <g transform="translate(92.86,70)">
      <path d="M-7.14,-10 L7.14,-10 7.14,10 -7.14,10  z" class="primitive"/>
    </g>
    <g stroke="#000000" id="img-b083b070-156">
      <g transform="translate(92.86,70)">
        <g class="primitive">
          <text text-anchor="middle" dy="0.35em">↑</text>
        </g>
      </g>
    </g>
  </g>
  <g stroke="#808080" fill="#FFFFFF" id="img-b083b070-157">
    <g transform="translate(92.86,90)">
      <path d="M-7.14,-10 L7.14,-10 7.14,10 -7.14,10  z" class="primitive"/>
    </g>
    <g stroke="#000000" id="img-b083b070-158">
      <g transform="translate(92.86,90)">
        <g class="primitive">
          <text text-anchor="middle" dy="0.35em">↑</text>
        </g>
      </g>
    </g>
  </g>
  <g stroke="#808080" fill="#FFFFFF" id="img-b083b070-159">
    <g transform="translate(78.57,10)">
      <path d="M-7.14,-10 L7.14,-10 7.14,10 -7.14,10  z" class="primitive"/>
    </g>
    <g stroke="#000000" id="img-b083b070-160">
      <g transform="translate(78.57,10)">
        <g class="primitive">
          <text text-anchor="middle" dy="0.35em">→</text>
        </g>
      </g>
    </g>
  </g>
  <g stroke="#808080" fill="#FFFFFF" id="img-b083b070-161">
    <g transform="translate(78.57,30)">
      <path d="M-7.14,-10 L7.14,-10 7.14,10 -7.14,10  z" class="primitive"/>
    </g>
    <g stroke="#000000" id="img-b083b070-162">
      <g transform="translate(78.57,30)">
        <g class="primitive">
          <text text-anchor="middle" dy="0.35em">→</text>
        </g>
      </g>
    </g>
  </g>
  <g stroke="#808080" fill="#FFFFFF" id="img-b083b070-163">
    <g transform="translate(78.57,50)">
      <path d="M-7.14,-10 L7.14,-10 7.14,10 -7.14,10  z" class="primitive"/>
    </g>
    <g stroke="#000000" id="img-b083b070-164">
      <g transform="translate(78.57,50)">
        <g class="primitive">
          <text text-anchor="middle" dy="0.35em">→</text>
        </g>
      </g>
    </g>
  </g>
  <g stroke="#808080" fill="#FFFFFF" id="img-b083b070-165">
    <g transform="translate(78.57,70)">
      <path d="M-7.14,-10 L7.14,-10 7.14,10 -7.14,10  z" class="primitive"/>
    </g>
    <g stroke="#000000" id="img-b083b070-166">
      <g transform="translate(78.57,70)">
        <g class="primitive">
          <text text-anchor="middle" dy="0.35em">→</text>
        </g>
      </g>
    </g>
  </g>
  <g stroke="#808080" fill="#FFFFFF" id="img-b083b070-167">
    <g transform="translate(78.57,90)">
      <path d="M-7.14,-10 L7.14,-10 7.14,10 -7.14,10  z" class="primitive"/>
    </g>
    <g stroke="#000000" id="img-b083b070-168">
      <g transform="translate(78.57,90)">
        <g class="primitive">
          <text text-anchor="middle" dy="0.35em">→</text>
        </g>
      </g>
    </g>
  </g>
  <g stroke="#808080" fill="#FF0000" id="img-b083b070-169">
    <g transform="translate(64.29,10)">
      <path d="M-7.14,-10 L7.14,-10 7.14,10 -7.14,10  z" class="primitive"/>
    </g>
    <g stroke="#000000" id="img-b083b070-170">
      <g transform="translate(64.29,10)">
        <g class="primitive">
          <text text-anchor="middle" dy="0.35em">←</text>
        </g>
      </g>
    </g>
  </g>
  <g stroke="#808080" fill="#FF0000" id="img-b083b070-171">
    <g transform="translate(64.29,30)">
      <path d="M-7.14,-10 L7.14,-10 7.14,10 -7.14,10  z" class="primitive"/>
    </g>
    <g stroke="#000000" id="img-b083b070-172">
      <g transform="translate(64.29,30)">
        <g class="primitive">
          <text text-anchor="middle" dy="0.35em">→</text>
        </g>
      </g>
    </g>
  </g>
  <g stroke="#808080" fill="#FFFFFF" id="img-b083b070-173">
    <g transform="translate(64.29,50)">
      <path d="M-7.14,-10 L7.14,-10 7.14,10 -7.14,10  z" class="primitive"/>
    </g>
    <g stroke="#000000" id="img-b083b070-174">
      <g transform="translate(64.29,50)">
        <g class="primitive">
          <text text-anchor="middle" dy="0.35em">↑</text>
        </g>
      </g>
    </g>
  </g>
  <g stroke="#808080" fill="#FFFFFF" id="img-b083b070-175">
    <g transform="translate(64.29,70)">
      <path d="M-7.14,-10 L7.14,-10 7.14,10 -7.14,10  z" class="primitive"/>
    </g>
    <g stroke="#000000" id="img-b083b070-176">
      <g transform="translate(64.29,70)">
        <g class="primitive">
          <text text-anchor="middle" dy="0.35em">↑</text>
        </g>
      </g>
    </g>
  </g>
  <g stroke="#808080" fill="#FFFFFF" id="img-b083b070-177">
    <g transform="translate(64.29,90)">
      <path d="M-7.14,-10 L7.14,-10 7.14,10 -7.14,10  z" class="primitive"/>
    </g>
    <g stroke="#000000" id="img-b083b070-178">
      <g transform="translate(64.29,90)">
        <g class="primitive">
          <text text-anchor="middle" dy="0.35em">→</text>
        </g>
      </g>
    </g>
  </g>
  <g stroke="#808080" fill="#FF0000" id="img-b083b070-179">
    <g transform="translate(50,10)">
      <path d="M-7.14,-10 L7.14,-10 7.14,10 -7.14,10  z" class="primitive"/>
    </g>
    <g stroke="#000000" id="img-b083b070-180">
      <g transform="translate(50,10)">
        <g class="primitive">
          <text text-anchor="middle" dy="0.35em">→</text>
        </g>
      </g>
    </g>
  </g>
  <g stroke="#808080" fill="#FF0000" id="img-b083b070-181">
    <g transform="translate(50,30)">
      <path d="M-7.14,-10 L7.14,-10 7.14,10 -7.14,10  z" class="primitive"/>
    </g>
    <g stroke="#000000" id="img-b083b070-182">
      <g transform="translate(50,30)">
        <g class="primitive">
          <text text-anchor="middle" dy="0.35em">→</text>
        </g>
      </g>
    </g>
  </g>
  <g stroke="#808080" fill="#FFFFFF" id="img-b083b070-183">
    <g transform="translate(50,50)">
      <path d="M-7.14,-10 L7.14,-10 7.14,10 -7.14,10  z" class="primitive"/>
    </g>
    <g stroke="#000000" id="img-b083b070-184">
      <g transform="translate(50,50)">
        <g class="primitive">
          <text text-anchor="middle" dy="0.35em">→</text>
        </g>
      </g>
    </g>
  </g>
  <g stroke="#808080" fill="#FFFFFF" id="img-b083b070-185">
    <g transform="translate(50,70)">
      <path d="M-7.14,-10 L7.14,-10 7.14,10 -7.14,10  z" class="primitive"/>
    </g>
    <g stroke="#000000" id="img-b083b070-186">
      <g transform="translate(50,70)">
        <g class="primitive">
          <text text-anchor="middle" dy="0.35em">→</text>
        </g>
      </g>
    </g>
  </g>
  <g stroke="#808080" fill="#FFFFFF" id="img-b083b070-187">
    <g transform="translate(50,90)">
      <path d="M-7.14,-10 L7.14,-10 7.14,10 -7.14,10  z" class="primitive"/>
    </g>
    <g stroke="#000000" id="img-b083b070-188">
      <g transform="translate(50,90)">
        <g class="primitive">
          <text text-anchor="middle" dy="0.35em">→</text>
        </g>
      </g>
    </g>
  </g>
  <g stroke="#808080" fill="#FF0000" id="img-b083b070-189">
    <g transform="translate(35.71,10)">
      <path d="M-7.14,-10 L7.14,-10 7.14,10 -7.14,10  z" class="primitive"/>
    </g>
    <g stroke="#000000" id="img-b083b070-190">
      <g transform="translate(35.71,10)">
        <g class="primitive">
          <text text-anchor="middle" dy="0.35em">→</text>
        </g>
      </g>
    </g>
  </g>
  <g stroke="#808080" fill="#FF0000" id="img-b083b070-191">
    <g transform="translate(35.71,30)">
      <path d="M-7.14,-10 L7.14,-10 7.14,10 -7.14,10  z" class="primitive"/>
    </g>
    <g stroke="#000000" id="img-b083b070-192">
      <g transform="translate(35.71,30)">
        <g class="primitive">
          <text text-anchor="middle" dy="0.35em">→</text>
        </g>
      </g>
    </g>
  </g>
  <g stroke="#808080" fill="#FFFFFF" id="img-b083b070-193">
    <g transform="translate(35.71,50)">
      <path d="M-7.14,-10 L7.14,-10 7.14,10 -7.14,10  z" class="primitive"/>
    </g>
    <g stroke="#000000" id="img-b083b070-194">
      <g transform="translate(35.71,50)">
        <g class="primitive">
          <text text-anchor="middle" dy="0.35em">→</text>
        </g>
      </g>
    </g>
  </g>
  <g stroke="#808080" fill="#FFFFFF" id="img-b083b070-195">
    <g transform="translate(35.71,70)">
      <path d="M-7.14,-10 L7.14,-10 7.14,10 -7.14,10  z" class="primitive"/>
    </g>
    <g stroke="#000000" id="img-b083b070-196">
      <g transform="translate(35.71,70)">
        <g class="primitive">
          <text text-anchor="middle" dy="0.35em">→</text>
        </g>
      </g>
    </g>
  </g>
  <g stroke="#808080" fill="#FFFFFF" id="img-b083b070-197">
    <g transform="translate(35.71,90)">
      <path d="M-7.14,-10 L7.14,-10 7.14,10 -7.14,10  z" class="primitive"/>
    </g>
    <g stroke="#000000" id="img-b083b070-198">
      <g transform="translate(35.71,90)">
        <g class="primitive">
          <text text-anchor="middle" dy="0.35em">→</text>
        </g>
      </g>
    </g>
  </g>
  <g stroke="#808080" fill="#FFFFFF" id="img-b083b070-199">
    <g transform="translate(21.43,10)">
      <path d="M-7.14,-10 L7.14,-10 7.14,10 -7.14,10  z" class="primitive"/>
    </g>
    <g stroke="#000000" id="img-b083b070-200">
      <g transform="translate(21.43,10)">
        <g class="primitive">
          <text text-anchor="middle" dy="0.35em">↓</text>
        </g>
      </g>
    </g>
  </g>
  <g stroke="#808080" fill="#FFFFFF" id="img-b083b070-201">
    <g transform="translate(21.43,30)">
      <path d="M-7.14,-10 L7.14,-10 7.14,10 -7.14,10  z" class="primitive"/>
    </g>
    <g stroke="#000000" id="img-b083b070-202">
      <g transform="translate(21.43,30)">
        <g class="primitive">
          <text text-anchor="middle" dy="0.35em">→</text>
        </g>
      </g>
    </g>
  </g>
  <g stroke="#808080" fill="#FFFFFF" id="img-b083b070-203">
    <g transform="translate(21.43,50)">
      <path d="M-7.14,-10 L7.14,-10 7.14,10 -7.14,10  z" class="primitive"/>
    </g>
    <g stroke="#000000" id="img-b083b070-204">
      <g transform="translate(21.43,50)">
        <g class="primitive">
          <text text-anchor="middle" dy="0.35em">→</text>
        </g>
      </g>
    </g>
  </g>
  <g stroke="#808080" fill="#FFFFFF" id="img-b083b070-205">
    <g transform="translate(21.43,70)">
      <path d="M-7.14,-10 L7.14,-10 7.14,10 -7.14,10  z" class="primitive"/>
    </g>
    <g stroke="#000000" id="img-b083b070-206">
      <g transform="translate(21.43,70)">
        <g class="primitive">
          <text text-anchor="middle" dy="0.35em">→</text>
        </g>
      </g>
    </g>
  </g>
  <g stroke="#808080" fill="#FFFFFF" id="img-b083b070-207">
    <g transform="translate(21.43,90)">
      <path d="M-7.14,-10 L7.14,-10 7.14,10 -7.14,10  z" class="primitive"/>
    </g>
    <g stroke="#000000" id="img-b083b070-208">
      <g transform="translate(21.43,90)">
        <g class="primitive">
          <text text-anchor="middle" dy="0.35em">↑</text>
        </g>
      </g>
    </g>
  </g>
  <g stroke="#808080" fill="#FFFFFF" id="img-b083b070-209">
    <g transform="translate(7.14,10)">
      <path d="M-7.14,-10 L7.14,-10 7.14,10 -7.14,10  z" class="primitive"/>
    </g>
    <g stroke="#000000" id="img-b083b070-210">
      <g transform="translate(7.14,10)">
        <g class="primitive">
          <text text-anchor="middle" dy="0.35em">→</text>
        </g>
      </g>
    </g>
  </g>
  <g stroke="#808080" fill="#FFFFFF" id="img-b083b070-211">
    <g transform="translate(7.14,30)">
      <path d="M-7.14,-10 L7.14,-10 7.14,10 -7.14,10  z" class="primitive"/>
    </g>
    <g stroke="#000000" id="img-b083b070-212">
      <g transform="translate(7.14,30)">
        <g class="primitive">
          <text text-anchor="middle" dy="0.35em">→</text>
        </g>
      </g>
    </g>
  </g>
  <g stroke="#808080" fill="#FFFFFF" id="img-b083b070-213">
    <g transform="translate(7.14,50)">
      <path d="M-7.14,-10 L7.14,-10 7.14,10 -7.14,10  z" class="primitive"/>
    </g>
    <g stroke="#000000" id="img-b083b070-214">
      <g transform="translate(7.14,50)">
        <g class="primitive">
          <text text-anchor="middle" dy="0.35em">→</text>
        </g>
      </g>
    </g>
  </g>
  <g stroke="#808080" fill="#FFFFFF" id="img-b083b070-215">
    <g transform="translate(7.14,70)">
      <path d="M-7.14,-10 L7.14,-10 7.14,10 -7.14,10  z" class="primitive"/>
    </g>
    <g stroke="#000000" id="img-b083b070-216">
      <g transform="translate(7.14,70)">
        <g class="primitive">
          <text text-anchor="middle" dy="0.35em">→</text>
        </g>
      </g>
    </g>
  </g>
  <g stroke="#808080" fill="#FFFFFF" id="img-b083b070-217">
    <g transform="translate(7.14,90)">
      <path d="M-7.14,-10 L7.14,-10 7.14,10 -7.14,10  z" class="primitive"/>
    </g>
    <g stroke="#000000" id="img-b083b070-218">
      <g transform="translate(7.14,90)">
        <g class="primitive">
          <text text-anchor="middle" dy="0.35em">→</text>
        </g>
      </g>
    </g>
  </g>
</g>
<g fill="#FFA500" id="img-b083b070-219">
  <g transform="translate(92.86,10)">
    <circle cx="0" cy="0" r="5.71" class="primitive"/>
  </g>
</g>
</svg>
